<svg width="40" height="40" viewBox="0 0 40 40" fill="none" xmlns="http://www.w3.org/2000/svg">
<g id="amazon_aws" clip-path="url(#clip0_688_14)">
<path id="Vector" fill-rule="evenodd" clip-rule="evenodd" d="M19.5375 39.2349L10.6187 36.0349V22.9662L19.5375 26.0037V39.2349ZM21.1625 39.2349L30.0813 36.0349V22.9662L21.1625 26.0062V39.2349ZM11.5375 21.9849L20.5375 19.4437L28.9075 22.1437L20.5375 24.9849L11.5375 21.9849ZM8.9225 20.9849L0 17.7749V4.6874L8.91875 7.7249L8.9225 20.9849ZM10.5562 20.9849L19.475 17.7849V4.6874L10.5538 7.7399L10.5562 20.9849ZM0.93125 3.7349L9.93125 1.18115L18.3013 3.88115L9.93125 6.7224L0.93125 3.7349ZM29.7463 20.9849L20.8275 17.7849V4.6874L29.7463 7.7249V20.9849ZM31.3713 20.9849L40.29 17.7849V4.6874L31.3713 7.7249V20.9849ZM21.7463 3.7349L30.7463 1.19365L39.1162 3.89365L30.7463 6.7349L21.7463 3.7349Z" fill="#FF9900"/>
</g>
<defs>
<clipPath id="clip0_688_14">
<rect width="40" height="40" fill="white"/>
</clipPath>
</defs>
</svg>
