<svg width="40" height="23" viewBox="0 0 40 23" fill="none" xmlns="http://www.w3.org/2000/svg">
<g id="Group">
<path id="Vector" d="M23.1305 7.20978H26.7162V10.8753H28.5294C29.3771 10.8712 30.2185 10.7301 31.0212 10.4574C31.4118 10.3249 31.8484 10.1415 32.2322 9.91048C31.7261 9.24975 31.4679 8.41575 31.383 7.59195C31.2793 6.47345 31.5053 5.01694 32.2628 4.14133L32.6399 3.70565L33.09 4.0666C34.2212 4.97533 35.1724 6.245 35.3406 7.69302C36.702 7.29216 38.3012 7.38728 39.5021 8.08029L39.9946 8.3648L39.7356 8.87097C38.7275 10.8498 36.6043 11.4638 34.5295 11.3551C31.4246 19.0878 24.6652 22.749 16.4696 22.749C12.2351 22.749 8.35052 21.166 6.139 17.4096C6.00906 17.1761 5.89865 16.9323 5.7806 16.6928C5.03323 15.0393 4.7844 13.2278 4.95255 11.4273L5.00351 10.8855H8.06091V7.21233H11.6466V3.62667H18.8187V0.0410156H23.122V7.21318" fill="#394D54"/>
<g id="Clip path group">
<mask id="mask0_688_278" style="mask-type:luminance" maskUnits="userSpaceOnUse" x="5" y="0" width="35" height="23">
<g id="A">
<path id="Vector_2" d="M11.9193 0.351318V7.56536H8.46907V11.1724H5.58032L5.54801 11.486C5.36766 13.4511 5.71048 15.2637 6.49885 16.8134L6.76358 17.2886C6.9204 17.5736 7.1086 17.8411 7.30275 18.1022C7.4969 18.3634 7.56716 18.5073 7.69011 18.6806C9.77387 21.0211 12.8806 22.1503 16.4672 22.1503C24.4102 22.1503 31.1514 18.6314 34.1347 10.7264C36.2514 10.9434 38.2819 10.4008 39.2072 8.59461C37.733 7.74398 35.8388 8.01671 34.7475 8.56529L37.6389 0.351318L26.3473 7.56536H22.7403V0.351318H11.9193Z" fill="white"/>
</g>
</mask>
<g mask="url(#mask0_688_278)">
<g id="Group_2">
<g id="B">
<g id="C">
<path id="Vector_3" d="M19.4248 0.635254H22.5328V3.74325H19.4248V0.635254Z" fill="#20C2EF"/>
<g id="D">
<path d="M19.8066 3.48435V0.894043V3.48435ZM20.2727 3.4842V0.894043V3.4842ZM20.7435 3.4842V0.894043V3.4842ZM21.2145 3.4842V0.894043V3.4842ZM21.6854 3.4842V0.894043V3.4842ZM22.1512 3.4842V0.894043V3.4842Z" fill="black"/>
<path d="M19.8066 3.48435V0.894043M20.2727 3.4842V0.894043M20.7435 3.4842V0.894043M21.2145 3.4842V0.894043M21.6854 3.4842V0.894043M22.1512 3.4842V0.894043" stroke="#394D54" stroke-width="0.39144"/>
</g>
</g>
<g id="C_2">
<path id="Vector_4" d="M23.0107 3.74487H26.1187V0.637034H23.0107V3.74487Z" fill="#00ACD3"/>
<g id="D_2">
<path d="M23.3926 0.894308V3.48462V0.894308ZM23.8587 0.894465V3.48462V0.894465ZM24.3295 0.894465V3.48462V0.894465ZM24.8004 0.894465V3.48462V0.894465ZM25.2714 0.894465V3.48462V0.894465ZM25.7371 0.894465V3.48462V0.894465Z" fill="black"/>
<path d="M23.3926 0.894308V3.48462M23.8587 0.894465V3.48462M24.3295 0.894465V3.48462M24.8004 0.894465V3.48462M25.2714 0.894465V3.48462M25.7371 0.894465V3.48462" stroke="#394D54" stroke-width="0.39144"/>
</g>
</g>
</g>
<g id="B_2">
<g id="C_3">
<path id="Vector_5" d="M5.08105 4.21973H8.18905V7.32757H5.08105V4.21973Z" fill="#00ACD3"/>
<path id="Vector_6" d="M5.08105 7.80737H8.18905V10.9154H5.08105V7.80737Z" fill="#20C2EF"/>
<g id="D_3">
<path d="M5.46289 7.07029V4.47998V7.07029ZM5.92898 7.07013V4.47998V7.07013ZM6.39978 7.07013V4.47998V7.07013ZM6.87073 7.07013V4.47998V7.07013ZM7.34168 7.07013V4.47998V7.07013ZM7.80745 7.07013V4.47998V7.07013Z" fill="black"/>
<path d="M5.46289 7.07029V4.47998M5.92898 7.07013V4.47998M6.39978 7.07013V4.47998M6.87073 7.07013V4.47998M7.34168 7.07013V4.47998M7.80745 7.07013V4.47998" stroke="#394D54" stroke-width="0.39144"/>
</g>
<g id="D_4">
<path d="M5.46289 10.6565V8.06616V10.6565ZM5.92898 10.6563V8.06616V10.6563ZM6.39978 10.6563V8.06616V10.6563ZM6.87073 10.6563V8.06616V10.6563ZM7.34168 10.6563V8.06616V10.6563ZM7.80745 10.6563V8.06616V10.6563Z" fill="black"/>
<path d="M5.46289 10.6565V8.06616M5.92898 10.6563V8.06616M6.39978 10.6563V8.06616M6.87073 10.6563V8.06616M7.34168 10.6563V8.06616M7.80745 10.6563V8.06616" stroke="#394D54" stroke-width="0.39144"/>
</g>
</g>
<g id="C_4">
<path id="Vector_7" d="M8.66699 10.917H11.775V7.80915H8.66699V10.917Z" fill="#00ACD3"/>
<path id="Vector_8" d="M8.66699 7.32935H11.775V4.22135H8.66699V7.32935Z" fill="#20C2EF"/>
<g id="D_5">
<path d="M9.04883 8.06643V10.6567V8.06643ZM9.51492 8.06658V10.6567V8.06658ZM9.98571 8.06658V10.6567V8.06658ZM10.4567 8.06658V10.6567V8.06658ZM10.9276 8.06658V10.6567V8.06658ZM11.3934 8.06658V10.6567V8.06658Z" fill="black"/>
<path d="M9.04883 8.06643V10.6567M9.51492 8.06658V10.6567M9.98571 8.06658V10.6567M10.4567 8.06658V10.6567M10.9276 8.06658V10.6567M11.3934 8.06658V10.6567" stroke="#394D54" stroke-width="0.39144"/>
</g>
<g id="D_6">
<path d="M9.04883 4.48025V7.07056V4.48025ZM9.51492 4.4804V7.07056V4.4804ZM9.98571 4.4804V7.07056V4.4804ZM10.4567 4.4804V7.07056V4.4804ZM10.9276 4.4804V7.07056V4.4804ZM11.3934 4.4804V7.07056V4.4804Z" fill="black"/>
<path d="M9.04883 4.48025V7.07056M9.51492 4.4804V7.07056M9.98571 4.4804V7.07056M10.4567 4.4804V7.07056M10.9276 4.4804V7.07056M11.3934 4.4804V7.07056" stroke="#394D54" stroke-width="0.39144"/>
</g>
</g>
</g>
<g id="B_3">
<g id="C_5">
<path id="Vector_9" d="M12.2529 4.21973H15.3609V7.32757H12.2529V4.21973Z" fill="#00ACD3"/>
<path id="Vector_10" d="M12.2529 7.80737H15.3609V10.9154H12.2529V7.80737Z" fill="#20C2EF"/>
<g id="D_7">
<path d="M12.6348 7.07029V4.47998V7.07029ZM13.1009 7.07013V4.47998V7.07013ZM13.5717 7.07013V4.47998V7.07013ZM14.0426 7.07013V4.47998V7.07013ZM14.5136 7.07013V4.47998V7.07013ZM14.9793 7.07013V4.47998V7.07013Z" fill="black"/>
<path d="M12.6348 7.07029V4.47998M13.1009 7.07013V4.47998M13.5717 7.07013V4.47998M14.0426 7.07013V4.47998M14.5136 7.07013V4.47998M14.9793 7.07013V4.47998" stroke="#394D54" stroke-width="0.39144"/>
</g>
<g id="D_8">
<path d="M12.6348 10.6565V8.06616V10.6565ZM13.1009 10.6563V8.06616V10.6563ZM13.5717 10.6563V8.06616V10.6563ZM14.0426 10.6563V8.06616V10.6563ZM14.5136 10.6563V8.06616V10.6563ZM14.9793 10.6563V8.06616V10.6563Z" fill="black"/>
<path d="M12.6348 10.6565V8.06616M13.1009 10.6563V8.06616M13.5717 10.6563V8.06616M14.0426 10.6563V8.06616M14.5136 10.6563V8.06616M14.9793 10.6563V8.06616" stroke="#394D54" stroke-width="0.39144"/>
</g>
</g>
<g id="C_6">
<path id="Vector_11" d="M15.8389 10.917H18.9469V7.80915H15.8389V10.917Z" fill="#00ACD3"/>
<path id="Vector_12" d="M15.8389 7.32935H18.9469V4.22135H15.8389V7.32935Z" fill="#20C2EF"/>
<g id="D_9">
<path d="M16.2207 8.06643V10.6567V8.06643ZM16.6868 8.06658V10.6567V8.06658ZM17.1576 8.06658V10.6567V8.06658ZM17.6285 8.06658V10.6567V8.06658ZM18.0995 8.06658V10.6567V8.06658ZM18.5653 8.06658V10.6567V8.06658Z" fill="black"/>
<path d="M16.2207 8.06643V10.6567M16.6868 8.06658V10.6567M17.1576 8.06658V10.6567M17.6285 8.06658V10.6567M18.0995 8.06658V10.6567M18.5653 8.06658V10.6567" stroke="#394D54" stroke-width="0.39144"/>
</g>
<g id="D_10">
<path d="M16.2207 4.48025V7.07056V4.48025ZM16.6868 4.4804V7.07056V4.4804ZM17.1576 4.4804V7.07056V4.4804ZM17.6285 4.4804V7.07056V4.4804ZM18.0995 4.4804V7.07056V4.4804ZM18.5653 4.4804V7.07056V4.4804Z" fill="black"/>
<path d="M16.2207 4.48025V7.07056M16.6868 4.4804V7.07056M17.1576 4.4804V7.07056M17.6285 4.4804V7.07056M18.0995 4.4804V7.07056M18.5653 4.4804V7.07056" stroke="#394D54" stroke-width="0.39144"/>
</g>
</g>
</g>
<g id="B_4">
<g id="C_7">
<path id="Vector_13" d="M19.4248 4.21973H22.5328V7.32757H19.4248V4.21973Z" fill="#00ACD3"/>
<path id="Vector_14" d="M19.4248 7.80737H22.5328V10.9154H19.4248V7.80737Z" fill="#20C2EF"/>
<g id="D_11">
<path d="M19.8066 7.07029V4.47998V7.07029ZM20.2727 7.07013V4.47998V7.07013ZM20.7435 7.07013V4.47998V7.07013ZM21.2145 7.07013V4.47998V7.07013ZM21.6854 7.07013V4.47998V7.07013ZM22.1512 7.07013V4.47998V7.07013Z" fill="black"/>
<path d="M19.8066 7.07029V4.47998M20.2727 7.07013V4.47998M20.7435 7.07013V4.47998M21.2145 7.07013V4.47998M21.6854 7.07013V4.47998M22.1512 7.07013V4.47998" stroke="#394D54" stroke-width="0.39144"/>
</g>
<g id="D_12">
<path d="M19.8066 10.6565V8.06616V10.6565ZM20.2727 10.6563V8.06616V10.6563ZM20.7435 10.6563V8.06616V10.6563ZM21.2145 10.6563V8.06616V10.6563ZM21.6854 10.6563V8.06616V10.6563ZM22.1512 10.6563V8.06616V10.6563Z" fill="black"/>
<path d="M19.8066 10.6565V8.06616M20.2727 10.6563V8.06616M20.7435 10.6563V8.06616M21.2145 10.6563V8.06616M21.6854 10.6563V8.06616M22.1512 10.6563V8.06616" stroke="#394D54" stroke-width="0.39144"/>
</g>
</g>
<g id="C_8">
<path id="Vector_15" d="M23.0107 10.917H26.1187V7.80915H23.0107V10.917Z" fill="#00ACD3"/>
<path id="Vector_16" d="M23.0107 7.32935H26.1187V4.22135H23.0107V7.32935Z" fill="#20C2EF"/>
<g id="D_13">
<path d="M23.3926 8.06643V10.6567V8.06643ZM23.8587 8.06658V10.6567V8.06658ZM24.3295 8.06658V10.6567V8.06658ZM24.8004 8.06658V10.6567V8.06658ZM25.2714 8.06658V10.6567V8.06658ZM25.7371 8.06658V10.6567V8.06658Z" fill="black"/>
<path d="M23.3926 8.06643V10.6567M23.8587 8.06658V10.6567M24.3295 8.06658V10.6567M24.8004 8.06658V10.6567M25.2714 8.06658V10.6567M25.7371 8.06658V10.6567" stroke="#394D54" stroke-width="0.39144"/>
</g>
<g id="D_14">
<path d="M23.3926 4.48025V7.07056V4.48025ZM23.8587 4.4804V7.07056V4.4804ZM24.3295 4.4804V7.07056V4.4804ZM24.8004 4.4804V7.07056V4.4804ZM25.2714 4.4804V7.07056V4.4804ZM25.7371 4.4804V7.07056V4.4804Z" fill="black"/>
<path d="M23.3926 4.48025V7.07056M23.8587 4.4804V7.07056M24.3295 4.4804V7.07056M24.8004 4.4804V7.07056M25.2714 4.4804V7.07056M25.7371 4.4804V7.07056" stroke="#394D54" stroke-width="0.39144"/>
</g>
</g>
</g>
<path id="Vector_17" d="M34.7486 8.56599C34.989 6.6974 33.5905 5.2295 32.7233 4.53271C31.7238 5.68822 31.5686 8.71654 33.1365 9.99139C32.2614 10.7686 30.4176 11.4731 28.5296 11.4731H5.33253C5.14904 13.4439 5.33253 22.9345 5.33253 22.9345H39.364L39.2092 8.59673C37.735 7.7461 35.8399 8.01757 34.7486 8.56599Z" fill="#17B5EB"/>
<path id="Vector_18" d="M5.33301 13.9954V22.9345H39.3645V13.9954" fill="black" fill-opacity="0.17"/>
<path id="Vector_19" d="M17.4454 22.1346C15.3219 21.127 14.1564 19.7572 13.5079 18.262L7.05762 18.5433L10.351 22.9345L17.4454 22.1346Z" fill="#D4EDF1"/>
<path id="Vector_20" d="M34.8949 8.49649V8.5012C31.6235 12.7198 26.9307 16.4021 21.893 18.3374C17.3991 20.0637 13.4811 20.0719 10.7779 18.6855C10.4868 18.5212 10.2014 18.3386 9.91534 18.1661C7.93351 16.781 6.81737 14.4901 6.91116 11.4717H5.33301V22.9343H39.3645V7.87891H35.4438L34.8949 8.49649Z" fill="black" fill-opacity="0.085"/>
</g>
</g>
</g>
<path id="Vector_21" d="M7.15625 18.3914C9.37796 18.5129 11.7483 18.5358 13.8163 17.887" stroke="#394D54" stroke-width="0.853355" stroke-linecap="round"/>
<path id="Vector_22" d="M16.0233 16.8116C16.0231 17.0388 15.9327 17.2567 15.7721 17.4173C15.6114 17.578 15.3936 17.6683 15.1664 17.6686C14.939 17.6686 14.721 17.5783 14.5601 17.4176C14.3993 17.2569 14.3088 17.039 14.3086 16.8116C14.3086 16.5841 14.399 16.366 14.5598 16.2051C14.7207 16.0442 14.9389 15.9539 15.1664 15.9539C15.3937 15.9541 15.6117 16.0446 15.7724 16.2054C15.933 16.3662 16.0233 16.5843 16.0233 16.8116Z" fill="#D4EDF1"/>
<path id="Vector_23" d="M15.3974 16.2401C15.3227 16.2826 15.2717 16.3641 15.2717 16.4575C15.2717 16.596 15.3838 16.7081 15.5223 16.7081C15.6174 16.7081 15.6921 16.6554 15.7431 16.5773C15.7738 16.6519 15.7897 16.7318 15.7898 16.8125C15.7898 17.1522 15.5146 17.4265 15.1758 17.4265C14.8369 17.4265 14.5617 17.1514 14.5617 16.8125C14.5617 16.4737 14.8369 16.1985 15.1758 16.1985C15.2519 16.1984 15.3265 16.2125 15.3974 16.2401ZM0 14.1764H39.8855C39.0167 13.9555 37.1381 13.6668 37.4481 12.5203C35.8684 14.3479 32.0603 13.7942 31.0997 12.9007C30.0296 14.4532 23.7985 13.863 23.3645 12.646C22.0226 14.2205 17.8654 14.2205 16.5236 12.646C16.0887 13.8553 9.85843 14.4464 8.79513 12.9007C7.82525 13.7942 4.01709 14.3488 2.43743 12.5203C2.74742 13.6583 0.867963 13.964 0 14.1764Z" fill="#394D54"/>
</g>
</svg>
