<svg width="40" height="40" viewBox="0 0 40 40" fill="none" xmlns="http://www.w3.org/2000/svg">
<g clip-path="url(#clip0_688_227)">
<path d="M4.10352 11.213H30.5659C33.4821 11.213 36.0862 9.8758 37.8334 7.78825C34.1887 3.05385 28.4683 0 22.0316 0C14.1502 0 7.33876 4.57497 4.10352 11.213Z" fill="#F0BF1A"/>
<path d="M28.3235 14.3279H2.90255C2.38199 16.107 2.09766 17.987 2.09766 19.9343C2.09766 21.8817 2.38199 23.7619 2.90255 25.5409H28.3235C31.376 25.5409 33.9301 23.0491 33.9301 19.9343C33.9301 16.8196 31.4384 14.3279 28.3235 14.3279Z" fill="#07A5DE"/>
<path d="M37.9014 31.9937C36.1652 29.953 33.5821 28.6555 30.6904 28.6555H4.10352C7.33876 35.2937 14.1502 39.8685 22.0315 39.8685C28.5079 39.8685 34.2603 36.778 37.9014 31.9937Z" fill="#3EBEB0"/>
<path d="M2.90255 14.3279C2.38185 16.107 2.09766 17.987 2.09766 19.9343C2.09766 21.8817 2.38185 23.7619 2.90255 25.5409H19.54C19.9761 23.8589 20.2252 21.9901 20.2252 19.9343C20.2252 17.8786 19.9761 16.0098 19.54 14.3279H2.90255Z" fill="#231F20"/>
<path d="M12.0023 2.67871C8.63823 4.67214 5.83502 7.66221 4.09082 11.2131H18.7924C17.2973 7.78682 14.9301 4.92137 12.0023 2.67871Z" fill="#D7A229"/>
<path d="M12.6252 37.5014C15.4907 35.1965 17.7956 32.144 19.2284 28.6555H4.09082C5.95963 32.3933 8.94984 35.508 12.6252 37.5014Z" fill="#019B8F"/>
</g>
<defs>
<clipPath id="clip0_688_227">
<rect width="40" height="40" fill="white"/>
</clipPath>
</defs>
</svg>
