<svg width="200" height="126" viewBox="0 0 200 126" fill="none" xmlns="http://www.w3.org/2000/svg">
<rect width="200" height="126" rx="8" fill="#F6F6F6"/>
<g clip-path="url(#clip0_134_1524)">
<path d="M25.687 52.92L24 34H42.5357L40.8474 52.9174L33.256 55.0209L25.687 52.92Z" fill="#E44D26"/>
<path d="M39.4022 51.7124L40.8455 35.5469H33.2686V53.4132L39.4022 51.7124Z" fill="#F16529"/>
<path d="M33.2604 37.8672H27.4492L28.0753 44.8844H33.2682V42.5642H30.1978L29.9856 40.1881H33.2682V37.8672H33.2604ZM33.2682 48.5829L33.2584 48.5855L30.6741 47.8879L30.5098 46.0373H28.1791L28.5042 49.6806L33.2577 50.9945L33.2682 50.9912V48.5829Z" fill="#EBEBEB"/>
<path d="M33.2601 44.8844H36.1177L35.8549 47.8931L33.2667 48.5914V51.0056L38.0241 49.6872L38.6613 42.5629H33.268L33.2601 44.8844ZM39.0174 38.49L39.0726 37.8672H33.2588V40.1874H38.8637L38.9096 39.6658L39.0174 38.49Z" fill="white"/>
<path d="M47.2795 52.7757L45.6055 34H63.9997L62.324 52.7728L54.7913 54.8611L47.2795 52.7757Z" fill="#264DE4"/>
<path d="M60.8895 51.5771L62.3215 35.5349H54.8027V53.2646L60.8895 51.5771Z" fill="#2965F1"/>
<path d="M49.4434 42.4988L49.6497 44.8015H54.8029V42.4988H49.4434Z" fill="#EBEBEB"/>
<path d="M49.2377 40.1409H54.8026V37.8381H54.7946H49.0283L49.2377 40.1409Z" fill="#EBEBEB"/>
<path d="M54.7926 50.8783L54.8032 50.8753V48.4795L54.7931 48.4822L52.2285 47.7897L52.0645 45.9531H50.8183H49.7529L50.0755 49.5688L54.7926 50.8783Z" fill="#EBEBEB"/>
<path d="M60.5634 37.8381H54.7949V40.1409H58.0398L57.8302 42.499H54.7949V44.8017H57.6305L57.3632 47.7883L54.7949 48.4815V50.8772L59.5157 49.5688L59.5504 49.1798L60.0915 43.1174L60.1477 42.499L60.5634 37.8381Z" fill="white"/>
</g>
<path d="M33.42 81.2C33.42 81.0667 33.4867 81 33.62 81H35.14C35.2733 81 35.34 81.0667 35.34 81.2V94.8C35.34 94.9333 35.2733 95 35.14 95H33.62C33.4867 95 33.42 94.9333 33.42 94.8V88.86C33.42 88.8067 33.3933 88.78 33.34 88.78H27.64C27.5867 88.78 27.56 88.8067 27.56 88.86V94.8C27.56 94.9333 27.4933 95 27.36 95H25.84C25.7067 95 25.64 94.9333 25.64 94.8V81.2C25.64 81.0667 25.7067 81 25.84 81H27.36C27.4933 81 27.56 81.0667 27.56 81.2V87.04C27.56 87.0933 27.5867 87.12 27.64 87.12H33.34C33.3933 87.12 33.42 87.0933 33.42 87.04V81.2ZM47.4306 81C47.564 81 47.6306 81.0667 47.6306 81.2V82.48C47.6306 82.6133 47.564 82.68 47.4306 82.68H43.5906C43.5373 82.68 43.5106 82.7067 43.5106 82.76V94.8C43.5106 94.9333 43.444 95 43.3106 95H41.7906C41.6573 95 41.5906 94.9333 41.5906 94.8V82.76C41.5906 82.7067 41.564 82.68 41.5106 82.68H37.8506C37.7173 82.68 37.6506 82.6133 37.6506 82.48V81.2C37.6506 81.0667 37.7173 81 37.8506 81H47.4306ZM59.075 81.12C59.1417 81.04 59.2217 81 59.315 81H60.835C60.9683 81 61.035 81.0667 61.035 81.2V94.8C61.035 94.9333 60.9683 95 60.835 95H59.315C59.1817 95 59.115 94.9333 59.115 94.8V84.56C59.115 84.52 59.1017 84.4933 59.075 84.48C59.0483 84.4667 59.0283 84.48 59.015 84.52L56.155 88.88C56.1017 88.96 56.0217 89 55.915 89H55.155C55.0617 89 54.9817 88.96 54.915 88.88L52.035 84.56C52.0217 84.52 52.0017 84.5067 51.975 84.52C51.9483 84.5333 51.935 84.56 51.935 84.6V94.8C51.935 94.9333 51.8683 95 51.735 95H50.215C50.0817 95 50.015 94.9333 50.015 94.8V81.2C50.015 81.0667 50.0817 81 50.215 81H51.735C51.8417 81 51.9217 81.04 51.975 81.12L55.475 86.36C55.4883 86.3733 55.5083 86.38 55.535 86.38C55.5617 86.38 55.5817 86.3733 55.595 86.36L59.075 81.12ZM64.5119 95C64.3785 95 64.3119 94.9333 64.3119 94.8V81.2C64.3119 81.0667 64.3785 81 64.5119 81H66.0319C66.1652 81 66.2319 81.0667 66.2319 81.2V93.26C66.2319 93.3133 66.2585 93.34 66.3119 93.34H73.2119C73.3452 93.34 73.4119 93.4067 73.4119 93.54V94.8C73.4119 94.9333 73.3452 95 73.2119 95H64.5119ZM74.8181 95C74.6715 95 74.6181 94.9267 74.6581 94.78L79.3581 81.16C79.3981 81.0533 79.4781 81 79.5981 81H81.0981C81.2448 81 81.2981 81.0733 81.2581 81.22L76.5581 94.84C76.5181 94.9467 76.4381 95 76.3181 95H74.8181ZM88.4798 95.18C87.5198 95.18 86.6665 94.9933 85.9198 94.62C85.1865 94.2333 84.6132 93.6933 84.1998 93C83.7998 92.2933 83.5998 91.4867 83.5998 90.58V85.4C83.5998 84.4933 83.7998 83.7 84.1998 83.02C84.6132 82.3267 85.1865 81.7933 85.9198 81.42C86.6665 81.0333 87.5198 80.84 88.4798 80.84C89.4398 80.84 90.2865 81.0267 91.0198 81.4C91.7532 81.76 92.3198 82.2733 92.7198 82.94C93.1332 83.6067 93.3398 84.38 93.3398 85.26V85.28C93.3398 85.3467 93.3198 85.4 93.2798 85.44C93.2398 85.48 93.1932 85.5 93.1398 85.5L91.6198 85.58C91.4865 85.58 91.4198 85.52 91.4198 85.4V85.34C91.4198 84.4867 91.1532 83.8 90.6198 83.28C90.0865 82.76 89.3732 82.5 88.4798 82.5C87.5865 82.5 86.8665 82.76 86.3198 83.28C85.7865 83.8 85.5198 84.4867 85.5198 85.34V90.66C85.5198 91.5133 85.7865 92.2 86.3198 92.72C86.8665 93.24 87.5865 93.5 88.4798 93.5C89.3732 93.5 90.0865 93.24 90.6198 92.72C91.1532 92.2 91.4198 91.5133 91.4198 90.66V90.62C91.4198 90.5 91.4865 90.44 91.6198 90.44L93.1398 90.52C93.2732 90.52 93.3398 90.5867 93.3398 90.72C93.3398 91.6 93.1332 92.38 92.7198 93.06C92.3198 93.7267 91.7532 94.2467 91.0198 94.62C90.2865 94.9933 89.4398 95.18 88.4798 95.18ZM100.448 95.16C99.4216 95.16 98.5283 95 97.7683 94.68C97.0216 94.36 96.4416 93.9067 96.0283 93.32C95.6283 92.7333 95.4283 92.0467 95.4283 91.26V90.68C95.4283 90.5467 95.4949 90.48 95.6283 90.48H97.0883C97.2216 90.48 97.2883 90.5467 97.2883 90.68V91.16C97.2883 91.84 97.5816 92.4 98.1683 92.84C98.7549 93.28 99.5616 93.5 100.588 93.5C101.508 93.5 102.202 93.3067 102.668 92.92C103.135 92.5333 103.368 92.0267 103.368 91.4C103.368 90.9867 103.248 90.6333 103.008 90.34C102.768 90.0467 102.415 89.78 101.948 89.54C101.495 89.2867 100.828 88.9867 99.9483 88.64C98.9749 88.2667 98.2016 87.9267 97.6283 87.62C97.0683 87.3133 96.6016 86.9133 96.2283 86.42C95.8549 85.9133 95.6683 85.28 95.6683 84.52C95.6683 83.3733 96.0749 82.4733 96.8883 81.82C97.7149 81.1667 98.8283 80.84 100.228 80.84C101.215 80.84 102.082 81.0067 102.828 81.34C103.575 81.6733 104.148 82.14 104.548 82.74C104.962 83.34 105.168 84.0333 105.168 84.82V85.22C105.168 85.3533 105.102 85.42 104.968 85.42H103.468C103.335 85.42 103.268 85.3533 103.268 85.22V84.92C103.268 84.2267 102.988 83.6533 102.428 83.2C101.882 82.7333 101.122 82.5 100.148 82.5C99.3216 82.5 98.6816 82.6733 98.2283 83.02C97.7749 83.3533 97.5483 83.84 97.5483 84.48C97.5483 84.92 97.6616 85.28 97.8883 85.56C98.1149 85.84 98.4483 86.0933 98.8883 86.32C99.3416 86.5333 100.028 86.8133 100.948 87.16C101.895 87.5333 102.662 87.88 103.248 88.2C103.835 88.5067 104.322 88.92 104.708 89.44C105.095 89.9467 105.288 90.58 105.288 91.34C105.288 92.5133 104.855 93.4467 103.988 94.14C103.135 94.82 101.955 95.16 100.448 95.16ZM112.206 95.16C111.179 95.16 110.286 95 109.526 94.68C108.779 94.36 108.199 93.9067 107.786 93.32C107.386 92.7333 107.186 92.0467 107.186 91.26V90.68C107.186 90.5467 107.253 90.48 107.386 90.48H108.846C108.979 90.48 109.046 90.5467 109.046 90.68V91.16C109.046 91.84 109.339 92.4 109.926 92.84C110.513 93.28 111.319 93.5 112.346 93.5C113.266 93.5 113.959 93.3067 114.426 92.92C114.893 92.5333 115.126 92.0267 115.126 91.4C115.126 90.9867 115.006 90.6333 114.766 90.34C114.526 90.0467 114.173 89.78 113.706 89.54C113.253 89.2867 112.586 88.9867 111.706 88.64C110.733 88.2667 109.959 87.9267 109.386 87.62C108.826 87.3133 108.359 86.9133 107.986 86.42C107.613 85.9133 107.426 85.28 107.426 84.52C107.426 83.3733 107.833 82.4733 108.646 81.82C109.473 81.1667 110.586 80.84 111.986 80.84C112.973 80.84 113.839 81.0067 114.586 81.34C115.333 81.6733 115.906 82.14 116.306 82.74C116.719 83.34 116.926 84.0333 116.926 84.82V85.22C116.926 85.3533 116.859 85.42 116.726 85.42H115.226C115.093 85.42 115.026 85.3533 115.026 85.22V84.92C115.026 84.2267 114.746 83.6533 114.186 83.2C113.639 82.7333 112.879 82.5 111.906 82.5C111.079 82.5 110.439 82.6733 109.986 83.02C109.533 83.3533 109.306 83.84 109.306 84.48C109.306 84.92 109.419 85.28 109.646 85.56C109.873 85.84 110.206 86.0933 110.646 86.32C111.099 86.5333 111.786 86.8133 112.706 87.16C113.653 87.5333 114.419 87.88 115.006 88.2C115.593 88.5067 116.079 88.92 116.466 89.44C116.853 89.9467 117.046 90.58 117.046 91.34C117.046 92.5133 116.613 93.4467 115.746 94.14C114.893 94.82 113.713 95.16 112.206 95.16Z" fill="#212121"/>
<defs>
<clipPath id="clip0_134_1524">
<rect width="40" height="40" fill="white" transform="translate(24 24)"/>
</clipPath>
</defs>
</svg>
