<svg width="40" height="40" viewBox="0 0 40 40" fill="none" xmlns="http://www.w3.org/2000/svg">
<g id="java" clip-path="url(#clip0_688_632)">
<path id="Vector" d="M14.5279 30.9249C14.5279 30.9249 12.9904 31.8599 15.5966 32.1274C18.7341 32.5274 20.4054 32.4611 23.8779 31.7936C24.5758 32.221 25.3139 32.579 26.0816 32.8624C18.2691 36.2024 8.38289 32.6624 14.5279 30.9249ZM13.5279 26.5836C13.5279 26.5836 11.8579 27.8524 14.4629 28.1211C17.8691 28.4549 20.5404 28.5211 25.1504 27.5874C25.5987 28.0421 26.1477 28.3851 26.7529 28.5886C17.3354 31.3936 6.78289 28.8549 13.5279 26.5836ZM31.9616 34.1961C31.9616 34.1961 33.0966 35.1311 30.6929 35.8661C26.2179 37.2036 11.9254 37.6036 7.91789 35.8661C6.51539 35.2661 9.18664 34.3974 10.0429 34.2636C10.9116 34.0636 11.3804 34.0636 11.3804 34.0636C9.84289 32.9949 1.16164 36.2674 6.97289 37.2011C22.9354 39.8061 36.0929 36.0661 31.9516 34.1961H31.9616ZM15.2504 22.0411C15.2504 22.0411 7.97039 23.7786 12.6454 24.3786C14.6491 24.6461 18.5891 24.5786 22.2629 24.3124C25.2679 24.0449 28.2754 23.5124 28.2754 23.5124C28.2754 23.5124 27.2066 23.9799 26.4716 24.4474C19.0591 26.3849 4.83164 25.5161 8.90664 23.5124C12.3791 21.8424 15.2516 22.0436 15.2516 22.0436L15.2504 22.0411ZM28.2754 29.3211C35.7554 25.4461 32.2829 21.7086 29.8779 22.1749C29.2779 22.3086 29.0091 22.4424 29.0091 22.4424C29.0091 22.4424 29.2091 22.0424 29.6766 21.9086C34.4191 20.2386 38.1591 26.9174 28.1391 29.5211C28.1391 29.5211 28.2054 29.4549 28.2729 29.3211H28.2754ZM15.9879 39.8736C23.2004 40.3411 34.2216 39.6061 34.4879 36.1986C34.4879 36.1986 33.9541 37.5361 28.5441 38.5361C22.3991 39.6711 14.7854 39.5361 10.3104 38.8036C10.3104 38.8036 11.2454 39.6049 15.9879 39.8736Z" fill="#4E7896"/>
<path id="Vector_2" d="M23.7452 0.0012207C23.7452 0.0012207 27.8865 4.20872 19.8052 10.5537C13.3265 15.6962 18.3365 18.635 19.8052 21.975C15.9977 18.5687 13.2602 15.5625 15.1302 12.7587C17.8677 8.61622 25.4152 6.62497 23.7452 0.0012207ZM21.6202 19.17C23.5577 21.3737 21.0865 23.3775 21.0865 23.3775C21.0865 23.3775 26.029 20.84 23.7577 17.7C21.6877 14.695 20.0827 13.225 28.7665 8.21622C28.7665 8.21622 15.0752 11.6225 21.6202 19.17Z" fill="#F58219"/>
</g>
<defs>
<clipPath id="clip0_688_632">
<rect width="40" height="40" fill="white"/>
</clipPath>
</defs>
</svg>
