<svg width="40" height="40" viewBox="0 0 40 40" fill="none" xmlns="http://www.w3.org/2000/svg">
<g id="Group">
<path id="Vector" d="M0 0H40V40H0V0Z" fill="#FFDF00"/>
<path id="Vector_2" d="M26.87 31.2501C27.6757 32.5657 28.724 33.5326 30.578 33.5326C32.1354 33.5326 33.1304 32.7542 33.1304 31.6786C33.1304 30.3897 32.1082 29.9333 30.3939 29.1834L29.4542 28.7802C26.7418 27.6247 24.9399 26.177 24.9399 23.1167C24.9399 20.2976 27.0879 18.1516 30.4446 18.1516C32.8345 18.1516 34.5526 18.9833 35.7907 21.1611L32.8637 23.0405C32.2193 21.885 31.524 21.4297 30.4446 21.4297C29.3437 21.4297 28.6459 22.1282 28.6459 23.0405C28.6459 24.1682 29.3443 24.6247 30.957 25.3231L31.8967 25.7256C35.0903 27.0951 36.8935 28.4913 36.8935 31.6304C36.8935 35.0145 34.235 36.8685 30.6649 36.8685C27.1741 36.8685 24.9189 35.205 23.8154 33.0247L26.87 31.2501ZM13.5919 31.5758C14.1824 32.6235 14.7196 33.5092 16.011 33.5092C17.2459 33.5092 18.025 33.026 18.025 31.1473V18.3663H21.7837V31.198C21.7837 35.09 19.5018 36.8615 16.171 36.8615C13.1614 36.8615 11.4186 35.304 10.5322 33.4282L13.5919 31.5758Z" fill="black"/>
</g>
</svg>
