<svg width="40" height="40" viewBox="0 0 40 40" fill="none" xmlns="http://www.w3.org/2000/svg">
<g id="kafka" clip-path="url(#clip0_688_746)">
<path id="Vector" d="M26.9225 22.155C26.182 22.1554 25.45 22.3139 24.7757 22.6201C24.1014 22.9262 23.5003 23.3728 23.0125 23.93L20.5625 22.195C20.8225 21.4788 20.9725 20.71 20.9725 19.905C20.9707 19.137 20.8367 18.375 20.5763 17.6525L23.0213 15.9362C23.5089 16.4912 24.1091 16.9358 24.782 17.2406C25.4549 17.5453 26.185 17.7032 26.9238 17.7038C28.306 17.7011 29.631 17.1508 30.6084 16.1734C31.5858 15.196 32.1361 13.871 32.1388 12.4888C32.1361 11.1065 31.5858 9.78154 30.6084 8.80411C29.631 7.82668 28.306 7.27639 26.9238 7.27375C25.5415 7.27639 24.2165 7.82668 23.2391 8.80411C22.2617 9.78154 21.7114 11.1065 21.7088 12.4888C21.7088 13.0037 21.7863 13.4887 21.9263 13.97L19.48 15.6875C18.4575 14.42 16.9863 13.5337 15.31 13.2625V10.3125C16.48 10.0644 17.5295 9.42246 18.2832 8.4938C19.0369 7.56515 19.4492 6.40602 19.4513 5.21C19.4473 3.82836 18.8962 2.50453 17.9187 1.52815C16.9411 0.55176 15.6166 0.00230807 14.235 0C12.8527 0.00264301 11.5278 0.552928 10.5504 1.53036C9.57293 2.50779 9.02264 3.83271 9.02 5.215C9.02 7.69 10.7538 9.76125 13.07 10.2937V13.2938C9.91 13.8338 7.5 16.5912 7.5 19.9062C7.5 23.2375 9.93375 26.0063 13.1163 26.5413V29.695C10.7788 30.195 9.02125 32.295 9.02125 34.785C9.02389 36.1671 9.574 37.4918 10.5512 38.4692C11.5283 39.4466 12.8529 39.997 14.235 40C15.6173 39.9974 16.9422 39.4471 17.9196 38.4696C18.8971 37.4922 19.4474 36.1673 19.45 34.785C19.45 32.2937 17.6938 30.21 15.355 29.695V26.5413C16.9988 26.2663 18.4425 25.3962 19.455 24.1575L21.9213 25.9037C21.7802 26.3798 21.7082 26.8735 21.7075 27.37C21.7101 28.7523 22.2604 30.0772 23.2379 31.0546C24.2153 32.0321 25.5402 32.5824 26.9225 32.585C28.3048 32.5824 29.6297 32.0321 30.6071 31.0546C31.5846 30.0772 32.1349 28.7523 32.1375 27.37C32.1349 25.9877 31.5846 24.6628 30.6071 23.6854C29.6297 22.7079 28.3048 22.1576 26.9225 22.155ZM26.9225 9.9625C28.3163 9.9625 29.45 11.0975 29.45 12.4913C29.45 13.885 28.3163 15.0188 26.9225 15.0188C25.5288 15.0188 24.395 13.885 24.395 12.4913C24.395 11.0975 25.5288 9.9625 26.9225 9.9625ZM11.7075 5.215C11.7075 3.82125 12.8413 2.6875 14.2363 2.6875C15.6313 2.6875 16.7638 3.82125 16.7638 5.215C16.7638 6.60875 15.63 7.7425 14.2363 7.7425C12.8425 7.7425 11.7075 6.60875 11.7075 5.215ZM16.7625 34.7875C16.7625 36.1813 15.6287 37.315 14.235 37.315C12.8412 37.315 11.7063 36.1813 11.7063 34.7875C11.7063 33.3937 12.84 32.26 14.235 32.26C15.63 32.26 16.7625 33.3937 16.7625 34.7875ZM14.2338 23.435C12.2888 23.435 10.7088 21.8538 10.7088 19.91C10.7088 17.9663 12.29 16.385 14.2338 16.385C16.1775 16.385 17.7588 17.9663 17.7588 19.91C17.7588 21.8538 16.1775 23.435 14.2338 23.435ZM26.9213 29.9C25.5275 29.9 24.3938 28.765 24.3938 27.3713C24.3938 25.9775 25.5275 24.8438 26.9213 24.8438C28.315 24.8438 29.4488 25.9775 29.4488 27.3713C29.4488 28.765 28.315 29.9 26.9213 29.9Z" fill="#212121"/>
</g>
<defs>
<clipPath id="clip0_688_746">
<rect width="40" height="40" fill="white"/>
</clipPath>
</defs>
</svg>
