<svg width="104" height="78" viewBox="0 0 104 78" fill="none" xmlns="http://www.w3.org/2000/svg">
<g clip-path="url(#clip0_688_987)">
<path d="M29.6607 29.1187C29.9153 26.9984 29.8388 26.6891 31.4169 27.0312L31.8185 27.0672C33.0325 27.1219 34.62 26.8719 35.5685 26.4391C37.5763 25.5078 38.7669 23.9516 36.7872 24.3609C32.2716 25.2922 31.9435 23.7625 31.9435 23.7625C36.7138 16.6844 38.7091 7.7 36.9856 5.50156C32.2919 -0.498437 24.1653 2.33906 24.0294 2.41406L23.9856 2.42188C23.095 2.23438 22.1106 2.125 20.97 2.10938C18.9263 2.07813 17.3763 2.64531 16.1981 3.5375C16.1981 3.5375 1.70284 -2.43437 2.37627 11.0484C2.52002 13.9172 6.48565 32.7672 11.22 27.0641C12.9528 24.9797 14.6247 23.2188 14.6247 23.2188C15.4528 23.7703 16.4481 24.0516 17.4903 23.95L17.5716 23.8813C17.5475 24.1513 17.5586 24.4234 17.6044 24.6906C16.3856 26.0531 16.745 26.2922 14.3075 26.7938C11.8419 27.3016 13.2919 28.2063 14.2357 28.4438C15.3825 28.7313 18.0356 29.1375 19.8294 26.6281L19.7575 26.9141C20.2356 27.2969 20.2028 29.6641 20.2731 31.3547C20.3435 33.0453 20.4544 34.625 20.7997 35.5547C21.145 36.4844 21.5497 38.8828 24.7528 38.2109C27.4294 37.6375 29.4763 36.8109 29.6638 29.1328" fill="black"/>
<path d="M29.6607 29.1187C29.9153 26.9984 29.8388 26.6891 31.4169 27.0312L31.8185 27.0672C33.0325 27.1219 34.62 26.8719 35.5685 26.4391C37.5763 25.5078 38.7669 23.9516 36.7872 24.3609C32.2716 25.2922 31.9435 23.7625 31.9435 23.7625C36.7138 16.6844 38.7091 7.7 36.9857 5.50156C32.2919 -0.498437 24.1653 2.33906 24.0294 2.41406L23.9856 2.42188C23.095 2.23438 22.1106 2.125 20.97 2.10938C18.9263 2.07813 17.3763 2.64531 16.1981 3.5375C16.1981 3.5375 1.70284 -2.43437 2.37627 11.0484C2.52002 13.9172 6.48565 32.7672 11.22 27.0641C12.9528 24.9797 14.6247 23.2188 14.6247 23.2188C15.4528 23.7703 16.4481 24.0516 17.4903 23.95L17.5716 23.8813C17.5475 24.1513 17.5586 24.4234 17.6044 24.6906C16.3856 26.0531 16.745 26.2922 14.3075 26.7938C11.8419 27.3016 13.2919 28.2063 14.2357 28.4438C15.3825 28.7313 18.0356 29.1375 19.8294 26.6281L19.7575 26.9141C20.2357 27.2969 20.2028 29.6641 20.2731 31.3547C20.3435 33.0453 20.4544 34.625 20.7997 35.5547C21.145 36.4844 21.5497 38.8828 24.7528 38.2109C27.4294 37.6375 29.4763 36.8109 29.6638 29.1328" stroke="black" stroke-width="5.3725"/>
<path d="M36.7734 24.375C32.2578 25.3062 31.9297 23.7765 31.9297 23.7765C36.7 16.6984 38.6953 7.71405 36.9734 5.51561C32.2797 -0.484386 24.1531 2.35468 24.0172 2.42811L23.9734 2.43593C22.9809 2.23676 21.9717 2.13161 20.9594 2.12186C18.9156 2.09061 17.3656 2.6578 16.1875 3.54999C16.1875 3.54999 1.69063 -2.42189 2.36563 11.0609C2.50938 13.9297 6.47501 32.7797 11.2094 27.0765C12.9531 24.9797 14.625 23.2187 14.625 23.2187C15.4531 23.7703 16.4484 24.0515 17.4906 23.95L17.5719 23.8812C17.548 24.1513 17.559 24.4233 17.6047 24.6906C16.3859 26.0531 16.7453 26.2922 14.3078 26.7937C11.8422 27.3015 13.2922 28.2062 14.2359 28.4437C15.3828 28.7312 18.0359 29.1375 19.8297 26.6281L19.7578 26.914C20.2359 27.2969 20.5703 29.4031 20.5141 31.3125C20.4578 33.2219 20.4203 34.5312 20.7953 35.5562C21.1703 36.5812 21.5453 38.8844 24.7484 38.2125C27.425 37.639 28.8109 36.15 29.0063 33.6719C29.1438 31.9094 29.4531 32.1687 29.475 30.5937L29.725 29.8469C30.0109 27.4562 29.7719 26.6859 31.4203 27.0453L31.8219 27.0812C33.0359 27.1359 34.625 26.8859 35.5563 26.4531C37.5641 25.5219 38.7531 23.9656 36.7734 24.375Z" fill="#336791"/>
<path d="M20.0219 25.7297C19.8969 30.1766 20.0531 34.6548 20.4875 35.7298C20.9219 36.8048 21.8547 38.9329 25.0594 38.2485C27.7359 37.6751 28.7109 36.5641 29.1328 34.1126L30.1219 26.2735M16.1812 3.43756C16.1812 3.43756 1.67499 -2.49368 2.35 10.9891C2.49375 13.8579 6.45937 32.7079 11.1937 27.0048C12.9219 24.9219 14.4844 23.2923 14.4844 23.2923M24.0156 2.35475C23.5156 2.511 32.0844 -0.778061 36.9562 5.44538C38.675 7.64381 36.6828 16.6282 31.9125 23.7063" stroke="white" stroke-width="1.79" stroke-linecap="round" stroke-linejoin="round"/>
<path d="M31.9141 23.7032C31.9141 23.7032 32.2266 25.2344 36.7578 24.3C38.7375 23.8907 37.5453 25.4469 35.5391 26.3782C33.8922 27.1438 30.1984 27.3391 30.1375 26.2844C29.9813 23.5579 32.0813 24.386 31.9297 23.7032C31.7922 23.0875 30.8516 22.4844 30.2328 20.9782C29.6906 19.6657 22.7953 9.58755 32.1453 11.0829C32.4891 11.0125 29.7078 2.17661 20.9578 2.04849C12.2078 1.92036 12.4844 12.8063 12.4844 12.8063" stroke="white" stroke-width="1.79" stroke-linecap="round" stroke-linejoin="bevel"/>
<path d="M17.5738 24.6375C16.355 26 16.7144 26.2391 14.2769 26.7407C11.8113 27.2485 13.2613 28.1532 14.205 28.3907C15.3519 28.6782 18.005 29.0844 19.7988 26.5735C20.3456 25.8078 19.7956 24.5891 19.0456 24.2797C18.6831 24.1297 18.1988 23.9422 17.5769 24.6391L17.5738 24.6375Z" stroke="white" stroke-width="1.79" stroke-linejoin="round"/>
<path d="M17.4939 24.6141C17.3689 23.8125 17.7564 22.8609 18.1704 21.7453C18.7923 20.0734 20.2267 18.4016 19.0798 13.0938C18.2251 9.14063 12.4861 12.2703 12.4861 12.8063C12.4861 13.3422 12.7454 15.525 12.3923 18.0641C11.9282 21.3797 14.5017 24.1828 17.4642 23.8969" stroke="white" stroke-width="1.79" stroke-linecap="round" stroke-linejoin="round"/>
<path d="M16.1283 12.7267C16.1018 12.9095 16.4643 13.3986 16.9346 13.4642C17.4049 13.5298 17.8065 13.1486 17.833 12.9642C17.8596 12.7798 17.4971 12.5798 17.0268 12.5142C16.5565 12.4486 16.1518 12.5455 16.1283 12.7267Z" fill="white" stroke="white" stroke-width="0.5975"/>
<path d="M30.447 12.3532C30.472 12.536 30.111 13.0251 29.6407 13.0907C29.1704 13.1563 28.7657 12.7751 28.7423 12.5907C28.7189 12.4063 29.0782 12.2063 29.5485 12.1407C30.0189 12.0751 30.4235 12.1719 30.447 12.3532Z" fill="white" stroke="white" stroke-width="0.2975"/>
<path d="M32.1277 11.0859C32.2059 12.5234 31.8184 13.5 31.7684 15.0297C31.6965 17.2516 32.8277 19.7953 31.123 22.3422" stroke="white" stroke-width="1.79" stroke-linecap="round" stroke-linejoin="round"/>
</g>
<path d="M7.12 56.98C7.93333 56.98 8.64667 57.1533 9.26 57.5C9.88667 57.8333 10.3667 58.3067 10.7 58.92C11.0467 59.5333 11.22 60.24 11.22 61.04C11.22 61.84 11.0467 62.54 10.7 63.14C10.3533 63.74 9.86 64.2067 9.22 64.54C8.59333 64.8733 7.86667 65.04 7.04 65.04H3.52C3.46667 65.04 3.44 65.0667 3.44 65.12V70.8C3.44 70.9333 3.37333 71 3.24 71H1.72C1.58667 71 1.52 70.9333 1.52 70.8V57.18C1.52 57.0467 1.58667 56.98 1.72 56.98H7.12ZM6.86 63.48C7.59333 63.48 8.18 63.26 8.62 62.82C9.07333 62.38 9.3 61.8 9.3 61.08C9.3 60.3467 9.07333 59.76 8.62 59.32C8.18 58.8667 7.59333 58.64 6.86 58.64H3.52C3.46667 58.64 3.44 58.6667 3.44 58.72V63.4C3.44 63.4533 3.46667 63.48 3.52 63.48H6.86ZM16.9663 71.16C15.9796 71.16 15.1196 70.9133 14.3863 70.42C13.6529 69.9133 13.1396 69.2133 12.8463 68.32C12.6063 67.6 12.4863 66.7867 12.4863 65.88C12.4863 64.9333 12.5996 64.1333 12.8263 63.48C13.1196 62.6 13.6329 61.9133 14.3663 61.42C15.0996 60.9133 15.9729 60.66 16.9863 60.66C17.9463 60.66 18.7796 60.9133 19.4863 61.42C20.2063 61.9133 20.7196 62.5933 21.0263 63.46C21.2663 64.14 21.3863 64.94 21.3863 65.86C21.3863 66.7933 21.2663 67.6133 21.0263 68.32C20.7329 69.2133 20.2263 69.9133 19.5063 70.42C18.7863 70.9133 17.9396 71.16 16.9663 71.16ZM16.9663 69.5C17.4996 69.5 17.9663 69.3533 18.3663 69.06C18.7663 68.7533 19.0529 68.3267 19.2263 67.78C19.3729 67.2733 19.4463 66.6467 19.4463 65.9C19.4463 65.1533 19.3796 64.5333 19.2463 64.04C19.0729 63.4933 18.7863 63.0733 18.3863 62.78C17.9863 62.4733 17.4996 62.32 16.9263 62.32C16.3796 62.32 15.9063 62.4733 15.5063 62.78C15.1063 63.0733 14.8196 63.4933 14.6463 64.04C14.4996 64.5067 14.4263 65.1267 14.4263 65.9C14.4263 66.6733 14.4996 67.3 14.6463 67.78C14.8063 68.3267 15.0863 68.7533 15.4863 69.06C15.8996 69.3533 16.3929 69.5 16.9663 69.5ZM27.48 71.12C26.68 71.12 25.9733 71 25.36 70.76C24.76 70.52 24.2933 70.1933 23.96 69.78C23.6267 69.3533 23.46 68.8867 23.46 68.38V68.16C23.46 68.0267 23.5267 67.96 23.66 67.96H25.1C25.2333 67.96 25.3 68.0267 25.3 68.16V68.26C25.3 68.6333 25.5 68.96 25.9 69.24C26.3133 69.52 26.8333 69.66 27.46 69.66C28.06 69.66 28.5467 69.5333 28.92 69.28C29.2933 69.0133 29.48 68.68 29.48 68.28C29.48 67.8933 29.3067 67.6067 28.96 67.42C28.6133 67.22 28.0533 67.0133 27.28 66.8C26.52 66.5867 25.88 66.3733 25.36 66.16C24.8533 65.9333 24.42 65.62 24.06 65.22C23.7133 64.8067 23.54 64.28 23.54 63.64C23.54 62.7467 23.8867 62.04 24.58 61.52C25.2867 60.9867 26.22 60.72 27.38 60.72C28.1533 60.72 28.8333 60.8467 29.42 61.1C30.02 61.34 30.48 61.68 30.8 62.12C31.12 62.56 31.28 63.0533 31.28 63.6V63.66C31.28 63.7933 31.2133 63.86 31.08 63.86H29.68C29.5467 63.86 29.48 63.7933 29.48 63.66V63.6C29.48 63.2133 29.2867 62.8933 28.9 62.64C28.5267 62.3733 28.0133 62.24 27.36 62.24C26.7733 62.24 26.2933 62.3533 25.92 62.58C25.56 62.8067 25.38 63.1133 25.38 63.5C25.38 63.8867 25.5533 64.18 25.9 64.38C26.26 64.58 26.8333 64.7933 27.62 65.02C28.3933 65.2333 29.0333 65.4467 29.54 65.66C30.06 65.86 30.5 66.1667 30.86 66.58C31.22 66.98 31.4 67.5067 31.4 68.16C31.4 69.0667 31.04 69.7867 30.32 70.32C29.6133 70.8533 28.6667 71.12 27.48 71.12ZM38.6466 62.2C38.6466 62.3333 38.5799 62.4 38.4466 62.4H36.2866C36.2332 62.4 36.2066 62.4267 36.2066 62.48V67.78C36.2066 68.34 36.3332 68.7467 36.5866 69C36.8399 69.24 37.2332 69.36 37.7666 69.36H38.3466C38.4799 69.36 38.5466 69.4267 38.5466 69.56V70.8C38.5466 70.9333 38.4799 71 38.3466 71C37.9199 71.0267 37.6132 71.04 37.4266 71.04C36.4132 71.04 35.6466 70.86 35.1266 70.5C34.6199 70.1267 34.3666 69.4467 34.3666 68.46V62.48C34.3666 62.4267 34.3399 62.4 34.2866 62.4H33.0666C32.9332 62.4 32.8666 62.3333 32.8666 62.2V61.02C32.8666 60.8867 32.9332 60.82 33.0666 60.82H34.2866C34.3399 60.82 34.3666 60.7933 34.3666 60.74V58.38C34.3666 58.2467 34.4332 58.18 34.5666 58.18H36.0066C36.1399 58.18 36.2066 58.2467 36.2066 58.38V60.74C36.2066 60.7933 36.2332 60.82 36.2866 60.82H38.4466C38.5799 60.82 38.6466 60.8867 38.6466 61.02V62.2ZM47.1913 61.02C47.1913 60.8867 47.2579 60.82 47.3913 60.82H48.9113C49.0446 60.82 49.1113 60.8867 49.1113 61.02V70.48C49.1113 72.0933 48.6513 73.2467 47.7313 73.94C46.8246 74.6333 45.6046 74.98 44.0713 74.98C43.8579 74.98 43.5246 74.9667 43.0713 74.94C42.9379 74.9267 42.8713 74.8533 42.8713 74.72L42.9313 73.34C42.9313 73.2867 42.9513 73.24 42.9913 73.2C43.0313 73.16 43.0846 73.1467 43.1513 73.16C43.3379 73.1733 43.6113 73.18 43.9713 73.18C45.1046 73.18 45.9246 72.9667 46.4313 72.54C46.9379 72.1267 47.1913 71.42 47.1913 70.42V70.06C47.1913 70.0333 47.1779 70.0133 47.1513 70C47.1379 69.9867 47.1179 69.9933 47.0913 70.02C46.5313 70.6733 45.7113 71 44.6313 71C43.7646 71 42.9779 70.7733 42.2713 70.32C41.5779 69.8667 41.0979 69.2 40.8313 68.32C40.6579 67.7333 40.5713 66.92 40.5713 65.88C40.5713 64.7733 40.6713 63.92 40.8713 63.32C41.1246 62.52 41.5713 61.88 42.2113 61.4C42.8646 60.9067 43.6313 60.66 44.5113 60.66C45.6046 60.66 46.4646 60.9933 47.0913 61.66C47.1179 61.6867 47.1379 61.7 47.1513 61.7C47.1779 61.6867 47.1913 61.6667 47.1913 61.64V61.02ZM47.0713 67.74C47.1113 67.5267 47.1379 67.3 47.1513 67.06C47.1779 66.82 47.1913 66.42 47.1913 65.86C47.1913 65.3 47.1779 64.9067 47.1513 64.68C47.1379 64.44 47.1046 64.2133 47.0513 64C46.9446 63.5067 46.7046 63.1067 46.3313 62.8C45.9579 62.48 45.4913 62.32 44.9313 62.32C44.3713 62.32 43.9046 62.48 43.5313 62.8C43.1579 63.1067 42.8913 63.5067 42.7313 64C42.5846 64.4 42.5113 65.02 42.5113 65.86C42.5113 66.78 42.5779 67.4067 42.7113 67.74C42.8446 68.2333 43.1046 68.64 43.4913 68.96C43.8913 69.2667 44.3713 69.42 44.9313 69.42C45.5179 69.42 45.9913 69.2667 46.3513 68.96C46.7246 68.64 46.9646 68.2333 47.0713 67.74ZM56.2506 60.72C56.6773 60.72 57.064 60.8067 57.4106 60.98C57.504 61.02 57.5373 61.1 57.5106 61.22L57.1906 62.72C57.1773 62.84 57.0973 62.88 56.9506 62.84C56.724 62.7467 56.4573 62.7 56.1506 62.7L55.8706 62.72C55.244 62.7467 54.724 62.9667 54.3106 63.38C53.9106 63.78 53.7106 64.3067 53.7106 64.96V70.8C53.7106 70.9333 53.644 71 53.5106 71H51.9906C51.8573 71 51.7906 70.9333 51.7906 70.8V61.02C51.7906 60.8867 51.8573 60.82 51.9906 60.82H53.5106C53.644 60.82 53.7106 60.8867 53.7106 61.02V62.08C53.7106 62.12 53.7173 62.1467 53.7306 62.16C53.7573 62.16 53.7773 62.1467 53.7906 62.12C54.3906 61.1867 55.2106 60.72 56.2506 60.72ZM67.2963 64.64C67.3496 65.1867 67.3696 65.8 67.3563 66.48C67.3563 66.6133 67.2896 66.68 67.1563 66.68H60.7763C60.7229 66.68 60.6963 66.7067 60.6963 66.76C60.6963 67.2133 60.7363 67.56 60.8163 67.8C60.9629 68.3333 61.2563 68.7533 61.6963 69.06C62.1496 69.3533 62.7163 69.5 63.3963 69.5C64.3829 69.5 65.1429 69.0933 65.6763 68.28C65.7429 68.1467 65.8296 68.1267 65.9363 68.22L67.0763 68.98C67.1696 69.06 67.1896 69.1467 67.1363 69.24C66.7629 69.84 66.2296 70.3133 65.5363 70.66C64.8563 71.0067 64.0829 71.18 63.2163 71.18C62.2429 71.18 61.4229 70.9667 60.7563 70.54C60.0896 70.1133 59.5896 69.5067 59.2563 68.72C58.9363 67.9333 58.7763 66.98 58.7763 65.86C58.7763 64.8867 58.8496 64.1467 58.9963 63.64C59.2363 62.72 59.7163 61.9933 60.4363 61.46C61.1563 60.9267 62.0296 60.66 63.0563 60.66C64.4029 60.66 65.4096 61 66.0763 61.68C66.7429 62.3467 67.1496 63.3333 67.2963 64.64ZM63.0563 62.32C62.4829 62.32 62.0096 62.4667 61.6363 62.76C61.2629 63.04 61.0096 63.42 60.8763 63.9C60.7829 64.1933 60.7229 64.5667 60.6963 65.02C60.6963 65.0733 60.7229 65.1 60.7763 65.1H65.3563C65.4096 65.1 65.4363 65.0733 65.4363 65.02C65.4096 64.58 65.3696 64.2533 65.3163 64.04C65.1829 63.52 64.9163 63.1067 64.5163 62.8C64.1296 62.48 63.6429 62.32 63.0563 62.32ZM74.3389 71.16C73.3122 71.16 72.4189 71 71.6589 70.68C70.9122 70.36 70.3322 69.9067 69.9189 69.32C69.5189 68.7333 69.3189 68.0467 69.3189 67.26V66.68C69.3189 66.5467 69.3856 66.48 69.5189 66.48H70.9789C71.1122 66.48 71.1789 66.5467 71.1789 66.68V67.16C71.1789 67.84 71.4722 68.4 72.0589 68.84C72.6456 69.28 73.4522 69.5 74.4789 69.5C75.3989 69.5 76.0922 69.3067 76.5589 68.92C77.0256 68.5333 77.2589 68.0267 77.2589 67.4C77.2589 66.9867 77.1389 66.6333 76.8989 66.34C76.6589 66.0467 76.3056 65.78 75.8389 65.54C75.3856 65.2867 74.7189 64.9867 73.8389 64.64C72.8656 64.2667 72.0922 63.9267 71.5189 63.62C70.9589 63.3133 70.4922 62.9133 70.1189 62.42C69.7456 61.9133 69.5589 61.28 69.5589 60.52C69.5589 59.3733 69.9656 58.4733 70.7789 57.82C71.6056 57.1667 72.7189 56.84 74.1189 56.84C75.1056 56.84 75.9722 57.0067 76.7189 57.34C77.4656 57.6733 78.0389 58.14 78.4389 58.74C78.8522 59.34 79.0589 60.0333 79.0589 60.82V61.22C79.0589 61.3533 78.9922 61.42 78.8589 61.42H77.3589C77.2256 61.42 77.1589 61.3533 77.1589 61.22V60.92C77.1589 60.2267 76.8789 59.6533 76.3189 59.2C75.7722 58.7333 75.0122 58.5 74.0389 58.5C73.2122 58.5 72.5722 58.6733 72.1189 59.02C71.6656 59.3533 71.4389 59.84 71.4389 60.48C71.4389 60.92 71.5522 61.28 71.7789 61.56C72.0056 61.84 72.3389 62.0933 72.7789 62.32C73.2322 62.5333 73.9189 62.8133 74.8389 63.16C75.7856 63.5333 76.5522 63.88 77.1389 64.2C77.7256 64.5067 78.2122 64.92 78.5989 65.44C78.9856 65.9467 79.1789 66.58 79.1789 67.34C79.1789 68.5133 78.7456 69.4467 77.8789 70.14C77.0256 70.82 75.8456 71.16 74.3389 71.16ZM85.9567 56.84C86.9034 56.84 87.7367 57.04 88.4567 57.44C89.1767 57.8267 89.7367 58.3733 90.1367 59.08C90.5367 59.7867 90.7367 60.6067 90.7367 61.54V66.58C90.7367 67.78 90.3967 68.78 89.7167 69.58C89.0501 70.38 88.1434 70.8733 86.9967 71.06C86.9434 71.0733 86.9167 71.1067 86.9167 71.16V72.98C86.9167 73.1133 86.8501 73.18 86.7167 73.18H85.1967C85.0634 73.18 84.9967 73.1133 84.9967 72.98V71.16C84.9967 71.1067 84.9701 71.0733 84.9167 71.06C83.7701 70.8733 82.8567 70.38 82.1767 69.58C81.5101 68.78 81.1767 67.78 81.1767 66.58V61.54C81.1767 60.6067 81.3767 59.7867 81.7767 59.08C82.1767 58.3733 82.7367 57.8267 83.4567 57.44C84.1767 57.04 85.0101 56.84 85.9567 56.84ZM88.8167 61.44C88.8167 60.56 88.5501 59.8533 88.0167 59.32C87.4967 58.7733 86.8101 58.5 85.9567 58.5C85.1034 58.5 84.4101 58.7733 83.8767 59.32C83.3567 59.8533 83.0967 60.56 83.0967 61.44V66.56C83.0967 67.44 83.3567 68.1533 83.8767 68.7C84.4101 69.2333 85.1034 69.5 85.9567 69.5C86.8101 69.5 87.4967 69.2333 88.0167 68.7C88.5501 68.1533 88.8167 67.44 88.8167 66.56V61.44ZM93.6173 71C93.484 71 93.4173 70.9333 93.4173 70.8V57.2C93.4173 57.0667 93.484 57 93.6173 57H95.1373C95.2707 57 95.3373 57.0667 95.3373 57.2V69.26C95.3373 69.3133 95.364 69.34 95.4173 69.34H102.317C102.451 69.34 102.517 69.4067 102.517 69.54V70.8C102.517 70.9333 102.451 71 102.317 71H93.6173Z" fill="#212121"/>
<defs>
<clipPath id="clip0_688_987">
<rect width="40" height="40" fill="white"/>
</clipPath>
</defs>
</svg>
