<svg width="40" height="40" viewBox="0 0 40 40" fill="none" xmlns="http://www.w3.org/2000/svg">
<g id="Group">
<g id="Vector">
<path d="M29.6607 29.1187C29.9153 26.9984 29.8388 26.6891 31.4169 27.0312L31.8185 27.0672C33.0325 27.1219 34.62 26.8719 35.5685 26.4391C37.5763 25.5078 38.7669 23.9516 36.7872 24.3609C32.2716 25.2922 31.9435 23.7625 31.9435 23.7625C36.7138 16.6844 38.7091 7.7 36.9856 5.50156C32.2919 -0.498437 24.1653 2.33906 24.0294 2.41406L23.9856 2.42188C23.095 2.23438 22.1106 2.125 20.97 2.10938C18.9263 2.07813 17.3763 2.64531 16.1981 3.5375C16.1981 3.5375 1.70284 -2.43437 2.37627 11.0484C2.52002 13.9172 6.48565 32.7672 11.22 27.0641C12.9528 24.9797 14.6247 23.2188 14.6247 23.2188C15.4528 23.7703 16.4481 24.0516 17.4903 23.95L17.5716 23.8813C17.5475 24.1513 17.5586 24.4234 17.6044 24.6906C16.3856 26.0531 16.745 26.2922 14.3075 26.7938C11.8419 27.3016 13.2919 28.2063 14.2357 28.4438C15.3825 28.7313 18.0356 29.1375 19.8294 26.6281L19.7575 26.9141C20.2356 27.2969 20.2028 29.6641 20.2731 31.3547C20.3435 33.0453 20.4544 34.625 20.7997 35.5547C21.145 36.4844 21.5497 38.8828 24.7528 38.2109C27.4294 37.6375 29.4763 36.8109 29.6638 29.1328" fill="black"/>
<path d="M29.6607 29.1187C29.9153 26.9984 29.8388 26.6891 31.4169 27.0312L31.8185 27.0672C33.0325 27.1219 34.62 26.8719 35.5685 26.4391C37.5763 25.5078 38.7669 23.9516 36.7872 24.3609C32.2716 25.2922 31.9435 23.7625 31.9435 23.7625C36.7138 16.6844 38.7091 7.7 36.9857 5.50156C32.2919 -0.498437 24.1653 2.33906 24.0294 2.41406L23.9856 2.42188C23.095 2.23438 22.1106 2.125 20.97 2.10938C18.9263 2.07813 17.3763 2.64531 16.1981 3.5375C16.1981 3.5375 1.70284 -2.43437 2.37627 11.0484C2.52002 13.9172 6.48565 32.7672 11.22 27.0641C12.9528 24.9797 14.6247 23.2188 14.6247 23.2188C15.4528 23.7703 16.4481 24.0516 17.4903 23.95L17.5716 23.8813C17.5475 24.1513 17.5586 24.4234 17.6044 24.6906C16.3856 26.0531 16.745 26.2922 14.3075 26.7938C11.8419 27.3016 13.2919 28.2063 14.2357 28.4438C15.3825 28.7313 18.0356 29.1375 19.8294 26.6281L19.7575 26.9141C20.2357 27.2969 20.2028 29.6641 20.2731 31.3547C20.3435 33.0453 20.4544 34.625 20.7997 35.5547C21.145 36.4844 21.5497 38.8828 24.7528 38.2109C27.4294 37.6375 29.4763 36.8109 29.6638 29.1328" stroke="black" stroke-width="5.3725"/>
</g>
<path id="Vector_2" d="M36.7734 24.375C32.2578 25.3062 31.9297 23.7765 31.9297 23.7765C36.7 16.6984 38.6953 7.71405 36.9734 5.51561C32.2797 -0.484386 24.1531 2.35468 24.0172 2.42811L23.9734 2.43593C22.9809 2.23676 21.9717 2.13161 20.9594 2.12186C18.9156 2.09061 17.3656 2.6578 16.1875 3.54999C16.1875 3.54999 1.69063 -2.42189 2.36563 11.0609C2.50938 13.9297 6.47501 32.7797 11.2094 27.0765C12.9531 24.9797 14.625 23.2187 14.625 23.2187C15.4531 23.7703 16.4484 24.0515 17.4906 23.95L17.5719 23.8812C17.548 24.1513 17.559 24.4233 17.6047 24.6906C16.3859 26.0531 16.7453 26.2922 14.3078 26.7937C11.8422 27.3015 13.2922 28.2062 14.2359 28.4437C15.3828 28.7312 18.0359 29.1375 19.8297 26.6281L19.7578 26.914C20.2359 27.2969 20.5703 29.4031 20.5141 31.3125C20.4578 33.2219 20.4203 34.5312 20.7953 35.5562C21.1703 36.5812 21.5453 38.8844 24.7484 38.2125C27.425 37.639 28.8109 36.15 29.0063 33.6719C29.1438 31.9094 29.4531 32.1687 29.475 30.5937L29.725 29.8469C30.0109 27.4562 29.7719 26.6859 31.4203 27.0453L31.8219 27.0812C33.0359 27.1359 34.625 26.8859 35.5563 26.4531C37.5641 25.5219 38.7531 23.9656 36.7734 24.375Z" fill="#336791"/>
<g id="Group_2">
<g id="Group_3">
<path id="Vector_3" d="M20.0219 25.7297C19.8969 30.1766 20.0531 34.6548 20.4875 35.7298C20.9219 36.8048 21.8547 38.9329 25.0594 38.2485C27.7359 37.6751 28.7109 36.5641 29.1328 34.1126L30.1219 26.2735M16.1812 3.43756C16.1812 3.43756 1.67499 -2.49368 2.35 10.9891C2.49375 13.8579 6.45937 32.7079 11.1937 27.0048C12.9219 24.9219 14.4844 23.2923 14.4844 23.2923M24.0156 2.35475C23.5156 2.511 32.0844 -0.778061 36.9562 5.44538C38.675 7.64381 36.6828 16.6282 31.9125 23.7063" stroke="white" stroke-width="1.79" stroke-linecap="round" stroke-linejoin="round"/>
<path id="Vector_4" d="M31.9141 23.7032C31.9141 23.7032 32.2266 25.2344 36.7578 24.3C38.7375 23.8907 37.5453 25.4469 35.5391 26.3782C33.8922 27.1438 30.1984 27.3391 30.1375 26.2844C29.9813 23.5579 32.0813 24.386 31.9297 23.7032C31.7922 23.0875 30.8516 22.4844 30.2328 20.9782C29.6906 19.6657 22.7953 9.58755 32.1453 11.0829C32.4891 11.0125 29.7078 2.17661 20.9578 2.04849C12.2078 1.92036 12.4844 12.8063 12.4844 12.8063" stroke="white" stroke-width="1.79" stroke-linecap="round" stroke-linejoin="bevel"/>
</g>
<g id="Group_4">
<path id="Vector_5" d="M17.5738 24.6375C16.355 26 16.7144 26.2391 14.2769 26.7407C11.8113 27.2485 13.2613 28.1532 14.205 28.3907C15.3519 28.6782 18.005 29.0844 19.7988 26.5735C20.3456 25.8078 19.7956 24.5891 19.0456 24.2797C18.6831 24.1297 18.1988 23.9422 17.5769 24.6391L17.5738 24.6375Z" stroke="white" stroke-width="1.79" stroke-linejoin="round"/>
<path id="Vector_6" d="M17.4939 24.6141C17.3689 23.8125 17.7564 22.8609 18.1704 21.7453C18.7923 20.0734 20.2267 18.4016 19.0798 13.0938C18.2251 9.14063 12.4861 12.2703 12.4861 12.8063C12.4861 13.3422 12.7454 15.525 12.3923 18.0641C11.9282 21.3797 14.5017 24.1828 17.4642 23.8969" stroke="white" stroke-width="1.79" stroke-linecap="round" stroke-linejoin="round"/>
</g>
</g>
<g id="Group_5">
<path id="Vector_7" d="M16.1283 12.7267C16.1018 12.9095 16.4643 13.3986 16.9346 13.4642C17.4049 13.5298 17.8065 13.1486 17.833 12.9642C17.8596 12.7798 17.4971 12.5798 17.0268 12.5142C16.5565 12.4486 16.1518 12.5455 16.1283 12.7267Z" fill="white" stroke="white" stroke-width="0.5975"/>
<path id="Vector_8" d="M30.447 12.3532C30.472 12.536 30.111 13.0251 29.6407 13.0907C29.1704 13.1563 28.7657 12.7751 28.7423 12.5907C28.7189 12.4063 29.0782 12.2063 29.5485 12.1407C30.0189 12.0751 30.4235 12.1719 30.447 12.3532Z" fill="white" stroke="white" stroke-width="0.2975"/>
</g>
<path id="Vector_9" d="M32.1277 11.0859C32.2059 12.5234 31.8184 13.5 31.7684 15.0297C31.6965 17.2516 32.8277 19.7953 31.123 22.3422" stroke="white" stroke-width="1.79" stroke-linecap="round" stroke-linejoin="round"/>
</g>
</svg>
