<svg width="40" height="40" viewBox="0 0 40 40" fill="none" xmlns="http://www.w3.org/2000/svg">
<g id="spring" clip-path="url(#clip0_852_654)">
<path id="Vector" d="M36.3746 2.10318C35.8144 3.44642 35.0971 4.7186 34.2378 5.89318C32.3618 4.00933 30.13 2.51722 27.6721 1.5036C25.2143 0.48997 22.5795 -0.024943 19.9209 -0.0112069C17.2623 0.00252931 14.633 0.544641 12.1858 1.58361C9.73858 2.62258 7.52232 4.13767 5.66587 6.0408C3.80943 7.94394 2.34983 10.1971 1.37195 12.6694C0.39407 15.1416 -0.0825843 17.7836 -0.0303002 20.4417C0.0219838 23.0999 0.602164 25.7211 1.67651 28.153C2.75085 30.5848 4.29792 32.7789 6.22777 34.6076L6.96902 35.2619C9.7977 37.6454 13.2306 39.1999 16.8879 39.7535C20.5452 40.307 24.2843 39.8381 27.6917 38.3985C31.099 36.9589 34.0417 34.6048 36.1941 31.5966C38.3466 28.5884 39.625 25.0434 39.8878 21.3538C40.4346 16.2476 38.9353 9.78506 36.3753 2.10381L36.3746 2.10318ZM9.0809 34.7238C8.86745 34.9875 8.58057 35.182 8.25656 35.2827C7.93254 35.3834 7.58595 35.3856 7.26064 35.2893C6.93532 35.1929 6.64591 35.0022 6.429 34.7413C6.2121 34.4804 6.07746 34.161 6.04211 33.8236C6.00676 33.4861 6.0723 33.1458 6.23044 32.8456C6.38857 32.5454 6.63219 32.2989 6.93047 32.1372C7.22876 31.9755 7.5683 31.9059 7.90614 31.9372C8.24398 31.9686 8.56493 32.0994 8.8284 32.3132C9.18129 32.5995 9.4061 33.0143 9.45345 33.4663C9.50079 33.9182 9.3668 34.3705 9.0809 34.7238ZM36.2921 28.7176C31.3421 35.3113 20.7734 33.0863 13.9971 33.4063C13.9971 33.4063 12.7959 33.4769 11.5865 33.6751C11.5865 33.6751 12.0428 33.4813 12.6259 33.2607C17.3846 31.6044 19.634 31.2857 22.5246 29.7982C27.9671 27.0313 33.3509 20.9719 34.4696 14.6732C32.399 20.7326 26.1115 25.9432 20.3884 28.0594C16.4659 29.5051 9.37965 30.9132 9.37965 30.9132L9.09402 30.7601C4.27277 28.4163 4.12402 17.9744 12.8921 14.6069C16.7315 13.1282 20.4046 13.9401 24.5509 12.9507C28.9784 11.8988 34.1009 8.58193 36.1853 4.25318C38.5165 11.1782 41.3253 22.0169 36.289 28.7219L36.2921 28.7176Z" fill="#68BD45"/>
</g>
<defs>
<clipPath id="clip0_852_654">
<rect width="40" height="40" fill="white"/>
</clipPath>
</defs>
</svg>
