<svg width="40" height="40" viewBox="0 0 40 40" fill="none" xmlns="http://www.w3.org/2000/svg">
<g clip-path="url(#clip0_852_1148)">
<path d="M1.68698 28.92L0 10H18.5357L16.8474 28.9174L9.25604 31.0209L1.68698 28.92Z" fill="#E44D26"/>
<path d="M15.4022 27.7124L16.8455 11.5469H9.26855V29.4132L15.4022 27.7124Z" fill="#F16529"/>
<path d="M9.26036 13.8672H3.44922L4.07527 20.8844H9.26824V18.5642H6.19778L5.9856 16.1881H9.26824V13.8672H9.26036ZM9.26824 24.5829L9.25839 24.5855L6.67405 23.8879L6.50982 22.0373H4.17906L4.50424 25.6806L9.25773 26.9945L9.26824 26.9912V24.5829Z" fill="#EBEBEB"/>
<path d="M9.2601 20.8844H12.1177L11.8549 23.8931L9.26667 24.5914V27.0056L14.0241 25.6872L14.6613 18.5629H9.26799L9.2601 20.8844ZM15.0174 14.49L15.0726 13.8672H9.25879V16.1874H14.8637L14.9096 15.6658L15.0174 14.49Z" fill="white"/>
<path d="M23.2795 28.7757L21.6055 10H39.9997L38.324 28.7728L30.7913 30.8611L23.2795 28.7757Z" fill="#264DE4"/>
<path d="M36.8895 27.5771L38.3215 11.5349H30.8027V29.2646L36.8895 27.5771Z" fill="#2965F1"/>
<path d="M25.4434 18.4988L25.6497 20.8015H30.8029V18.4988H25.4434Z" fill="#EBEBEB"/>
<path d="M25.2377 16.1409H30.8026V13.8381H30.7946H25.0283L25.2377 16.1409Z" fill="#EBEBEB"/>
<path d="M30.7926 26.8783L30.8032 26.8753V24.4795L30.7931 24.4822L28.2285 23.7897L28.0645 21.9531H26.8183H25.7529L26.0755 25.5688L30.7926 26.8783Z" fill="#EBEBEB"/>
<path d="M36.5634 13.8381H30.7949V16.1409H34.0398L33.8302 18.499H30.7949V20.8017H33.6305L33.3632 23.7883L30.7949 24.4815V26.8772L35.5157 25.5688L35.5504 25.1798L36.0915 19.1174L36.1477 18.499L36.5634 13.8381Z" fill="white"/>
</g>
<defs>
<clipPath id="clip0_852_1148">
<rect width="40" height="40" fill="white"/>
</clipPath>
</defs>
</svg>
