<svg width="48" height="48" viewBox="0 0 48 48" fill="none" xmlns="http://www.w3.org/2000/svg">
<g id="scalable" clip-path="url(#clip0_688_1034)">
<path id="Vector" d="M7.99988 0C3.582 0.00183105 0 3.58383 0 7.99988C0 12.4196 3.582 16.0016 7.99988 15.9998C12.4178 16.0016 15.9998 12.4196 15.9998 7.99988C16.0002 3.582 12.4182 0.00183105 7.99988 0Z" fill="url(#paint0_linear_688_1034)"/>
<path id="Vector_2" d="M40.0003 32C36.5524 32 33.4319 30.602 31.1719 28.3434L30.8711 28.0426C32.3392 25.5487 32.3392 22.4533 30.8711 19.9567L31.1719 19.6559C33.4319 17.3982 36.5552 15.9998 40.0003 15.9998C44.4182 16.0002 48.0002 12.4182 48.0002 7.99988C48.0002 3.58154 44.4182 0 40.0003 0C35.5824 0 32 3.582 32 7.99988C32 11.4468 30.602 14.5679 28.3434 16.8274L28.0426 17.1281C24.977 15.3232 20.9752 15.7104 18.3426 18.3426C15.71 20.9752 15.3241 24.9756 17.1286 28.0421L16.8283 28.3429C14.5688 30.601 11.4455 31.9991 8.00034 31.9991C3.582 32 0 35.5824 0 40.0003C0 44.4182 3.582 48.0002 7.99988 48.0002C12.4178 48.0002 15.9998 44.4182 15.9998 40.0003C15.9998 36.5524 17.3982 33.4319 19.6559 31.1719L19.9567 30.8711C22.4519 32.3392 25.5478 32.3392 28.0426 30.8711L28.3434 31.1719C30.602 33.4319 32 36.5552 32 40.0003C32 44.4182 35.5824 48.0002 40.0003 48.0002C44.4182 48.0002 48.0002 44.4182 48.0002 40.0003C48.0002 35.5824 44.4182 32 40.0003 32Z" fill="url(#paint1_linear_688_1034)"/>
</g>
<defs>
<linearGradient id="paint0_linear_688_1034" x1="7.99988" y1="0" x2="7.99988" y2="15.9998" gradientUnits="userSpaceOnUse">
<stop stop-color="#02A676"/>
<stop offset="1" stop-color="#00C189"/>
</linearGradient>
<linearGradient id="paint1_linear_688_1034" x1="24.0001" y1="0" x2="24.0001" y2="48.0002" gradientUnits="userSpaceOnUse">
<stop stop-color="#02A676"/>
<stop offset="1" stop-color="#00C189"/>
</linearGradient>
<clipPath id="clip0_688_1034">
<rect width="48" height="48" fill="white"/>
</clipPath>
</defs>
</svg>
