<svg width="48" height="48" viewBox="0 0 48 48" fill="none" xmlns="http://www.w3.org/2000/svg">
<g id="Approach" clip-path="url(#clip0_688_1097)">
<path id="Vector" d="M7.99988 16.0002C3.58337 16.0002 0 12.4182 0 7.99988C0 3.58154 3.58337 0 7.99988 0C12.4178 0 15.9998 3.582 15.9998 7.99988C15.9998 12.4178 19.5822 16.0002 24.0001 16.0002C28.418 16.0002 32 12.4182 32 8.00033C32 3.58246 35.5824 0 40.0003 0C44.4182 0 48.0002 3.582 48.0002 7.99988C48.0002 12.4178 44.4182 15.9998 40.0003 15.9998C26.7439 15.9998 16.0002 26.748 16.0002 39.9994C16.0002 44.415 12.4182 47.9993 8.00034 47.9993C3.58246 47.9993 0 44.4182 0 40.0003C0 35.5824 3.582 32 7.99988 32C12.4178 32 15.9988 28.418 15.9988 24.0001C15.9988 19.5822 12.4182 16.0002 7.99988 16.0002Z" fill="url(#paint0_linear_688_1097)"/>
<path id="Vector_2" d="M22 34.9998C22 27.8161 27.8191 21.9998 35.0005 21.9998C42.1819 22.0002 48.0001 27.8161 48.0001 34.9998C48.0001 42.1803 42.1819 48.0003 34.9996 48.0003C27.8182 48.0003 22 42.1803 22 34.9998Z" fill="url(#paint1_linear_688_1097)"/>
</g>
<defs>
<linearGradient id="paint0_linear_688_1097" x1="24.0001" y1="0" x2="24.0001" y2="47.9993" gradientUnits="userSpaceOnUse">
<stop stop-color="#02A676"/>
<stop offset="1" stop-color="#00C189"/>
</linearGradient>
<linearGradient id="paint1_linear_688_1097" x1="35" y1="21.9998" x2="35" y2="48.0003" gradientUnits="userSpaceOnUse">
<stop stop-color="#02A676"/>
<stop offset="1" stop-color="#00C189"/>
</linearGradient>
<clipPath id="clip0_688_1097">
<rect width="48" height="48" fill="white"/>
</clipPath>
</defs>
</svg>
