<svg width="40" height="40" viewBox="0 0 40 40" fill="none" xmlns="http://www.w3.org/2000/svg">
<g id="kubernetes" clip-path="url(#clip0_688_372)">
<path id="Vector" d="M19.8753 0.594955C19.5176 0.615969 19.1678 0.708636 18.8466 0.867455L4.91532 7.51245C4.18782 7.85871 3.65907 8.51745 3.47782 9.30245L0.0678223 24.2162C-0.0946777 24.9162 0.0365723 25.65 0.442822 26.25C0.490322 26.3225 0.540322 26.3925 0.592822 26.46L10.2178 38.4275C10.7266 39.0525 11.4903 39.4112 12.2953 39.4075H27.7328C28.5403 39.4087 29.3053 39.0325 29.8128 38.4162L39.4328 26.4462C39.9378 25.8212 40.1266 24.9962 39.9328 24.2137L36.5003 9.28745C36.3191 8.50245 35.7878 7.8437 35.0628 7.49745L21.1541 0.868705C20.7533 0.671028 20.3093 0.576913 19.8628 0.594955H19.8753Z" fill="#326CE5"/>
<path id="Vector_2" d="M20.0026 5.67749C19.5226 5.71124 19.1589 6.12249 19.1839 6.60249V6.83749C19.2064 7.10374 19.2464 7.36749 19.2989 7.62874C19.3756 8.12902 19.4032 8.63559 19.3814 9.14124C19.3339 9.30749 19.2389 9.45749 19.1089 9.57249L19.0901 9.92499C18.5839 9.96749 18.0814 10.045 17.5864 10.1575C15.5039 10.6275 13.6076 11.7075 12.1439 13.2637L11.8439 13.0512C11.6789 13.1012 11.5014 13.0825 11.3501 13.0012C10.9444 12.7009 10.5689 12.3618 10.2289 11.9887C10.0581 11.7847 9.87573 11.5906 9.68265 11.4075L9.49765 11.26C9.33265 11.1275 9.13015 11.0512 8.9189 11.0412C8.79283 11.0346 8.66697 11.0578 8.55161 11.1091C8.43625 11.1603 8.33466 11.2382 8.25515 11.3362C7.97265 11.7325 8.06515 12.2812 8.46015 12.565L8.63265 12.7025C8.85469 12.8502 9.08508 12.985 9.32265 13.1062C9.76515 13.3525 10.1826 13.6412 10.5701 13.9812C10.6693 14.1226 10.7269 14.2889 10.7364 14.4612L11.0089 14.7112C9.53765 16.9187 8.9339 19.5925 9.3114 22.2187L8.9614 22.3187C8.87015 22.4637 8.7489 22.5875 8.6039 22.6787C8.11558 22.8091 7.61572 22.8916 7.1114 22.925C6.84375 22.9304 6.57664 22.9513 6.3114 22.9875L6.09015 23.0375H6.06515C5.91161 23.0588 5.76699 23.1223 5.64741 23.2209C5.52782 23.3196 5.43795 23.4494 5.3878 23.5961C5.33766 23.7428 5.32921 23.9005 5.36339 24.0517C5.39757 24.2029 5.47304 24.3416 5.5814 24.4525C5.69077 24.5628 5.82865 24.6405 5.97964 24.6769C6.13063 24.7133 6.28877 24.707 6.4364 24.6587H6.45265L6.67765 24.6337C6.9314 24.5587 7.1814 24.4662 7.42515 24.3612C7.8939 24.1737 8.38015 24.03 8.87765 23.9362C9.05015 23.9462 9.21515 24.005 9.35515 24.105L9.73015 24.0425C10.5426 26.5637 12.2501 28.7 14.5301 30.0462L14.3776 30.365C14.4476 30.5112 14.4739 30.6737 14.4526 30.835C14.2464 31.3125 13.9939 31.77 13.6989 32.2C13.5371 32.4133 13.3877 32.6358 13.2514 32.8662L13.1451 33.0912C13.0681 33.225 13.0294 33.3774 13.0335 33.5317C13.0376 33.686 13.0842 33.8362 13.1683 33.9656C13.2524 34.0951 13.3706 34.1988 13.5099 34.2653C13.6492 34.3318 13.8041 34.3585 13.9576 34.3425C14.1115 34.3252 14.2576 34.2656 14.3796 34.1702C14.5016 34.0749 14.5949 33.9476 14.6489 33.8025L14.7526 33.59C14.8476 33.34 14.9276 33.085 14.9926 32.8275C15.2139 32.2812 15.3339 31.695 15.6364 31.3325C15.7353 31.2395 15.8598 31.1786 15.9939 31.1575L16.1814 30.8162C18.6529 31.7662 21.3877 31.7729 23.8639 30.835L24.0301 31.1537C24.2001 31.1787 24.3526 31.2725 24.4551 31.41C24.6901 31.8575 24.8801 32.3262 25.0251 32.81C25.0913 33.069 25.1722 33.324 25.2676 33.5737L25.3714 33.7862C25.426 33.9308 25.5194 34.0574 25.6415 34.1522C25.7636 34.2469 25.9095 34.306 26.0631 34.323C26.2167 34.3399 26.3719 34.314 26.5117 34.2482C26.6515 34.1824 26.7704 34.0792 26.8551 33.95C26.9391 33.82 26.9854 33.6694 26.9889 33.5147C26.9925 33.36 26.9531 33.2074 26.8751 33.0737L26.7664 32.8487C26.6301 32.6191 26.4807 32.3974 26.3189 32.185C26.0314 31.77 25.7839 31.3275 25.5689 30.8637C25.5488 30.779 25.546 30.691 25.5606 30.6051C25.5752 30.5192 25.6069 30.4371 25.6539 30.3637C25.6006 30.2547 25.5542 30.1424 25.5151 30.0275C27.7901 28.6712 29.4901 26.5275 30.2939 24.0025L30.6489 24.065C30.7764 23.9487 30.9439 23.8875 31.1151 23.8925C31.6114 23.9875 32.0976 24.1425 32.5676 24.3175C32.8114 24.43 33.0614 24.525 33.3151 24.605C33.3751 24.6212 33.4626 24.635 33.5301 24.6512H33.5464C33.6939 24.6989 33.8518 24.7046 34.0024 24.6679C34.153 24.6311 34.2905 24.5532 34.3995 24.443C34.5084 24.3327 34.5847 24.1943 34.6197 24.0433C34.6547 23.8922 34.647 23.7345 34.5976 23.5875C34.5471 23.4407 34.4568 23.3108 34.3367 23.2123C34.2166 23.1139 34.0715 23.0507 33.9176 23.03L33.6751 22.9725C33.4099 22.9363 33.1428 22.9154 32.8751 22.91C32.3701 22.8775 31.8701 22.795 31.3826 22.6637C31.2326 22.58 31.1076 22.455 31.0226 22.3037L30.6851 22.2037C31.045 19.5787 30.4285 16.913 28.9526 14.7125L29.2476 14.44C29.2351 14.2687 29.2914 14.0987 29.4026 13.9675C29.7864 13.6375 30.2026 13.3462 30.6401 13.0975C30.8777 12.9762 31.1081 12.8414 31.3301 12.6937L31.5126 12.5462C31.647 12.4628 31.755 12.3431 31.8242 12.2009C31.8933 12.0586 31.9208 11.8997 31.9034 11.7426C31.886 11.5854 31.8245 11.4363 31.7259 11.3126C31.6273 11.189 31.4957 11.0957 31.3464 11.0437C31.1972 10.9918 31.0363 10.9831 30.8823 11.0187C30.7284 11.0544 30.5877 11.1328 30.4764 11.245L30.2914 11.3925C30.0984 11.5756 29.916 11.7697 29.7451 11.9737C29.4151 12.3512 29.0501 12.695 28.6539 13.0025C28.494 13.0676 28.3191 13.0866 28.1489 13.0575L27.8326 13.2825C26.0076 11.37 23.5489 10.1825 20.9139 9.94499C20.9139 9.81999 20.8976 9.63249 20.8951 9.57374C20.7539 9.47624 20.6551 9.32749 20.6226 9.15874C20.6053 8.65393 20.6371 8.14864 20.7176 7.64999C20.7714 7.38749 20.8089 7.12499 20.8326 6.85874V6.60874C20.8576 6.12874 20.4951 5.71749 20.0139 5.68374L20.0026 5.67749ZM18.9601 12.135L18.7101 16.5012H18.6914C18.6789 16.7712 18.5201 17.0012 18.2764 17.1312C18.0326 17.2612 17.7439 17.2225 17.5264 17.0637L13.9451 14.5262C15.085 13.4066 16.515 12.6278 18.0739 12.2775C18.3664 12.215 18.6614 12.1675 18.9576 12.135H18.9601ZM21.0451 12.135C22.9264 12.3687 24.6776 13.2137 26.0326 14.54L22.4851 17.0612C22.2664 17.2362 21.9664 17.2712 21.7126 17.1512C21.4589 17.0312 21.2964 16.7762 21.2926 16.4962L21.0451 12.135ZM12.6451 16.1687L15.9201 19.0912V19.11C16.1239 19.2875 16.2126 19.5637 16.1526 19.8275C16.0926 20.0912 15.8901 20.3 15.6314 20.3712V20.3837L11.4289 21.5925C11.2209 19.6991 11.6493 17.7904 12.6464 16.1675L12.6451 16.1687ZM27.3364 16.1687C28.3314 17.7875 28.7714 19.6862 28.5889 21.5775L24.3801 20.365V20.3487C24.1176 20.2775 23.9176 20.0687 23.8589 19.805C23.8001 19.5412 23.8876 19.2675 24.0914 19.0875L27.3414 16.1787L27.3364 16.1687ZM19.3314 19.3187H20.6714L21.4901 20.3587L21.1926 21.6587L19.9889 22.2375L18.7826 21.6587L18.4989 20.3587L19.3314 19.3187ZM23.6239 22.8662C23.6801 22.86 23.7489 22.86 23.7926 22.8662L28.1264 23.5975C27.5014 25.3975 26.2676 26.935 24.6576 27.9637L22.9826 23.9087C22.9366 23.8 22.9173 23.6817 22.9265 23.5639C22.9357 23.4461 22.9731 23.3323 23.0354 23.2319C23.0978 23.1316 23.1833 23.0477 23.2849 22.9873C23.3864 22.927 23.501 22.8919 23.6189 22.885L23.6239 22.8662ZM16.3451 22.885C16.5901 22.8887 16.8164 23.015 16.9501 23.22C17.0839 23.425 17.1051 23.6825 17.0089 23.9075V23.9237L15.3439 27.9462C13.7501 26.925 12.5401 25.4062 11.8964 23.625L16.1926 22.8962C16.2401 22.8912 16.2889 22.8912 16.3376 22.8962L16.3451 22.885ZM19.9751 24.635C20.1117 24.6307 20.2468 24.6644 20.3653 24.7324C20.4838 24.8004 20.5812 24.8999 20.6464 25.02H20.6626L22.7801 28.8412L21.9339 29.0912C20.3764 29.4475 18.7501 29.3637 17.2364 28.8487L19.3614 25.0275C19.4901 24.8025 19.7276 24.665 19.9864 24.6587L19.9751 24.635Z" fill="white" stroke="white" stroke-width="0.11"/>
</g>
<defs>
<clipPath id="clip0_688_372">
<rect width="40" height="40" fill="white"/>
</clipPath>
</defs>
</svg>
