<svg width="40" height="40" viewBox="0 0 40 40" fill="none" xmlns="http://www.w3.org/2000/svg">
<g id="mongodb" clip-path="url(#clip0_688_345)">
<path id="Vector" d="M19.8752 0.108643L20.9427 2.11364C21.1827 2.48364 21.4427 2.81114 21.7489 3.11614C22.6427 4.00989 23.4914 4.94614 24.2539 5.94864C26.0627 8.32364 27.2827 10.9611 28.1539 13.8136C28.6764 15.5561 28.9602 17.3436 28.9814 19.1511C29.0689 24.5549 27.2164 29.1949 23.4814 33.0511C22.8714 33.6611 22.2189 34.2261 21.5189 34.7286C21.1489 34.7286 20.9739 34.4449 20.8214 34.1836C20.5377 33.7049 20.3639 33.1586 20.2764 32.6149C20.1452 31.9611 20.0589 31.3074 20.1014 30.6324V30.3274C20.0714 30.2624 19.7452 0.262393 19.8752 0.108643Z" fill="#599636"/>
<path id="Vector_2" d="M19.8754 0.0425155C19.8317 -0.0449845 19.7879 0.0212655 19.7442 0.0637655C19.7654 0.501265 19.6129 0.891266 19.3742 1.26377C19.1117 1.63377 18.7642 1.91752 18.4154 2.22252C16.4779 3.90002 14.9529 5.92627 13.7317 8.19252C12.1067 11.2425 11.2692 14.5113 11.0317 17.9525C10.9229 19.1938 11.4242 23.5738 11.8154 24.8375C12.8829 28.1925 14.8004 31.0038 17.2842 33.4438C17.8942 34.0313 18.5467 34.5763 19.2217 35.1C19.4179 35.1 19.4392 34.925 19.4842 34.795C19.5702 34.5168 19.6358 34.2327 19.6804 33.945L20.1179 30.6775L19.8754 0.0425155Z" fill="#6CAC48"/>
<path id="Vector_3" d="M20.9429 36.0562C20.9867 35.5562 21.2267 35.1412 21.4879 34.7274C21.2254 34.6187 21.0304 34.4024 20.8779 34.1612C20.7467 33.9437 20.6379 33.6824 20.5529 33.4424C20.2479 32.5274 20.1829 31.5674 20.0954 30.6324V30.0662C19.9867 30.1537 19.9642 30.8937 19.9642 31.0037C19.9006 31.9919 19.7694 32.9746 19.5717 33.9449C19.5067 34.3374 19.4629 34.7287 19.2217 35.0774C19.2217 35.1212 19.2217 35.1649 19.2429 35.2299C19.6354 36.3849 19.7429 37.5612 19.8092 38.7599V39.1974C19.8092 39.7199 19.7879 39.6099 20.2217 39.7849C20.3967 39.8499 20.5917 39.8724 20.7667 40.0024C20.8979 40.0024 20.9192 39.8937 20.9192 39.8062L20.8542 39.0874V37.0824C20.8329 36.7324 20.8979 36.3849 20.9417 36.0574L20.9429 36.0562Z" fill="#C2BFBF"/>
</g>
<defs>
<clipPath id="clip0_688_345">
<rect width="40" height="40" fill="white"/>
</clipPath>
</defs>
</svg>
