<svg width="40" height="40" viewBox="0 0 40 40" fill="none" xmlns="http://www.w3.org/2000/svg">
<g id="oracle" clip-path="url(#clip0_688_222)">
<path id="Vector" d="M0 0H40V40H0V0Z" fill="#E30613"/>
<path id="Vector_2" d="M12.625 32.625C5.58125 32.625 0 26.91 0 20C0 12.9563 5.71438 7.375 12.625 7.375H27.375C34.4188 7.375 40 13.09 40 20C40 27.0438 34.2856 32.625 27.375 32.625H12.625ZM27.11 28.1063C31.6287 28.1063 35.3494 24.3856 35.3494 19.8669C35.3494 15.3481 31.6287 11.6275 27.11 11.6275H13.0231C8.50437 11.6275 4.78375 15.3481 4.78375 19.8669C4.78375 24.3856 8.505 28.1063 13.0231 28.1063H27.11Z" fill="white"/>
</g>
<defs>
<clipPath id="clip0_688_222">
<rect width="40" height="40" fill="white"/>
</clipPath>
</defs>
</svg>
