<svg width="40" height="40" viewBox="0 0 40 40" fill="none" xmlns="http://www.w3.org/2000/svg">
<g clip-path="url(#clip0_688_872)">
<path d="M10.3506 5.51953C10.3506 2.82748 11.089 1.36298 15.1656 0.665611C17.9333 0.191344 21.482 0.132061 24.7922 0.665611C27.4067 1.08751 29.6072 2.99149 29.6072 5.51953V14.4012C29.6072 17.0061 27.4708 19.1399 24.7922 19.1399H15.1656C11.8985 19.1399 9.14492 21.8634 9.14492 24.9424V29.2036H5.83492C3.03509 29.2036 1.40495 27.2299 0.720151 24.4681C-0.203561 20.7577 -0.164348 18.5471 0.720151 14.9936C1.48701 11.8937 3.93738 10.2581 6.73742 10.2581H19.9806V9.07239H10.3504V5.51934L10.3506 5.51953Z" fill="url(#paint0_linear_688_872)"/>
<path d="M29.6072 33.9426C29.6072 36.6347 27.2175 37.9982 24.7922 38.6782C21.1435 39.7034 18.2151 39.5465 15.1656 38.6782C12.6188 37.953 10.3506 36.4709 10.3506 33.9426V25.061C10.3506 22.5049 12.5299 20.3223 15.1656 20.3223H24.7922C27.9987 20.3223 30.8129 17.613 30.8129 14.4013V10.2585H34.4225C37.2259 10.2585 38.5458 12.2949 39.2375 14.9941C40.2004 18.7428 40.2433 21.5463 39.2375 24.4686C38.2638 27.3071 37.2223 29.2041 34.4225 29.2041H19.9806V30.3898H29.6072V33.9426Z" fill="url(#paint1_linear_688_872)"/>
<path d="M12.7578 4.93036C12.7578 3.94704 13.5639 3.15186 14.5628 3.15186C15.5578 3.15186 16.3678 3.94685 16.3678 4.93036C16.3678 5.91051 15.5581 6.7053 14.5628 6.7053C13.5643 6.7053 12.7578 5.91031 12.7578 4.93036ZM23.5897 34.5321C23.5897 33.552 24.3994 32.7572 25.3947 32.7572C26.3932 32.7572 27.1996 33.5522 27.1996 34.5321C27.1996 35.5154 26.3936 36.3106 25.3947 36.3106C24.3996 36.3106 23.5897 35.5156 23.5897 34.5321Z" fill="white"/>
</g>
<defs>
<linearGradient id="paint0_linear_688_872" x1="29.6074" y1="11.5285" x2="0.0423088" y2="11.2881" gradientUnits="userSpaceOnUse">
<stop stop-color="#366A96"/>
<stop offset="1" stop-color="#3679B0"/>
</linearGradient>
<linearGradient id="paint1_linear_688_872" x1="39.9756" y1="24.8241" x2="-18.5493" y2="24.8241" gradientUnits="userSpaceOnUse">
<stop stop-color="#FFC836"/>
<stop offset="1" stop-color="#FFE873"/>
</linearGradient>
<clipPath id="clip0_688_872">
<rect width="40" height="40" fill="white"/>
</clipPath>
</defs>
</svg>
