<svg width="40" height="38" viewBox="0 0 40 38" fill="none" xmlns="http://www.w3.org/2000/svg">
<g id="Group">
<path id="Vector" d="M19.9996 22.5388C21.9723 22.5388 23.5715 20.9396 23.5715 18.9669C23.5715 16.9942 21.9723 15.395 19.9996 15.395C18.0269 15.395 16.4277 16.9942 16.4277 18.9669C16.4277 20.9396 18.0269 22.5388 19.9996 22.5388Z" fill="#00D8FF"/>
<g id="Group_2">
<path id="Vector_2" fill-rule="evenodd" clip-rule="evenodd" d="M19.9999 11.7046C24.7957 11.7046 29.2508 12.3927 32.6099 13.5492C36.6572 14.9426 39.1457 17.0546 39.1457 18.967C39.1457 20.9599 36.5084 23.2036 32.1621 24.6436C28.8763 25.7323 24.5523 26.3006 19.9999 26.3006C15.3325 26.3006 10.9127 25.7672 7.58975 24.6317C3.38567 23.1947 0.853516 20.9219 0.853516 18.967C0.853516 17.0701 3.22946 14.9744 7.21986 13.5831C10.5915 12.4076 15.1567 11.7046 19.9993 11.7046H19.9999Z" stroke="#00D8FF" stroke-width="2.73408"/>
<path id="Vector_3" fill-rule="evenodd" clip-rule="evenodd" d="M13.6782 15.3568C16.074 11.2024 18.8957 7.68681 21.5757 5.35458C24.8046 2.5446 27.8774 1.44413 29.534 2.39942C31.2604 3.39501 31.8866 6.80058 30.9627 11.2849C30.265 14.6753 28.5965 18.7048 26.3222 22.6484C23.9904 26.6917 21.3204 30.254 18.677 32.5646C15.332 35.4886 12.0981 36.5468 10.4046 35.5701C8.76129 34.6232 8.13288 31.5174 8.92121 27.3656C9.58729 23.8575 11.2588 19.5517 13.6774 15.3567L13.6782 15.3568Z" stroke="#00D8FF" stroke-width="2.73408"/>
<path id="Vector_4" fill-rule="evenodd" clip-rule="evenodd" d="M13.6839 22.6591C11.2813 18.5094 9.64543 14.3082 8.96262 10.8217C8.14069 6.62092 8.72183 3.40909 10.3769 2.45102C12.1017 1.45251 15.3649 2.6108 18.7885 5.65075C21.3771 7.94909 24.0351 11.4063 26.316 15.3463C28.6545 19.3857 30.4071 23.478 31.089 26.9221C31.9517 31.2805 31.2534 34.6106 29.5615 35.59C27.9198 36.5404 24.9157 35.5342 21.7124 32.7776C19.0059 30.4486 16.1103 26.85 13.6839 22.659V22.6591Z" stroke="#00D8FF" stroke-width="2.73408"/>
</g>
</g>
</svg>
