<svg width="58" height="55" viewBox="0 0 58 55" fill="none" xmlns="http://www.w3.org/2000/svg">
<g id="Path">
<path id="Vector" d="M0.200195 22.456V52.768C0.200195 54.496 2.1442 55.504 3.5842 54.568L29.0002 37.576L3.5842 20.656C2.1442 19.648 0.200195 20.728 0.200195 22.456Z" fill="url(#paint0_linear_688_58)"/>
<path id="Vector_2" d="M24.1754 10.216C24.1754 15.544 19.8554 19.792 14.5994 19.792C9.34344 19.792 5.02344 15.472 5.02344 10.216C5.02344 4.96001 9.27144 0.640015 14.5994 0.640015C19.9274 0.640015 24.1754 4.96001 24.1754 10.216Z" fill="url(#paint1_linear_688_58)"/>
<path id="Vector_3" d="M57.8 22.456V52.768C57.8 54.496 55.856 55.504 54.416 54.568L29 37.576L54.416 20.584C55.856 19.648 57.8 20.728 57.8 22.456Z" fill="url(#paint2_linear_688_58)"/>
<path id="Vector_4" d="M33.8242 10.216C33.8242 15.544 38.1442 19.792 43.4002 19.792C48.6562 19.792 52.9762 15.472 52.9762 10.216C52.9762 4.96001 48.7282 0.640015 43.4002 0.640015C38.0722 0.640015 33.8242 4.96001 33.8242 10.216Z" fill="url(#paint3_linear_688_58)"/>
</g>
<defs>
<linearGradient id="paint0_linear_688_58" x1="14.6002" y1="20.2677" x2="14.6002" y2="54.9254" gradientUnits="userSpaceOnUse">
<stop stop-color="#02A676"/>
<stop offset="1" stop-color="#00C189"/>
</linearGradient>
<linearGradient id="paint1_linear_688_58" x1="14.5994" y1="0.640015" x2="14.5994" y2="19.792" gradientUnits="userSpaceOnUse">
<stop stop-color="#02A676"/>
<stop offset="1" stop-color="#00C189"/>
</linearGradient>
<linearGradient id="paint2_linear_688_58" x1="43.4" y1="20.2385" x2="43.4" y2="54.9254" gradientUnits="userSpaceOnUse">
<stop stop-color="#02A676"/>
<stop offset="1" stop-color="#00C189"/>
</linearGradient>
<linearGradient id="paint3_linear_688_58" x1="43.4002" y1="0.640015" x2="43.4002" y2="19.792" gradientUnits="userSpaceOnUse">
<stop stop-color="#02A676"/>
<stop offset="1" stop-color="#00C189"/>
</linearGradient>
</defs>
</svg>
