<svg width="48" height="48" viewBox="0 0 48 48" fill="none" xmlns="http://www.w3.org/2000/svg">
<g id="knowledge" clip-path="url(#clip0_688_429)">
<path id="Vector" d="M0.00366211 14.1288C0.00320435 21.8934 6.29471 28.1854 14.0593 28.1877C21.828 28.1854 28.1172 21.8943 28.1172 14.1288C28.1172 6.36331 21.8248 0.06952 14.0593 0.0722665L0 0.0731821L0.00366211 14.1288Z" fill="url(#paint0_linear_688_429)"/>
<path id="Vector_2" d="M47.994 34.0112C47.9958 26.2476 41.7034 19.9524 33.9416 19.9524C26.1724 19.9524 19.8818 26.2489 19.8818 34.0131C19.8818 41.7749 26.1756 48.0696 33.9416 48.0678H48.0004L47.994 34.0112Z" fill="url(#paint1_linear_688_429)"/>
<path id="Vector_3" d="M47.9998 8.07019C47.9998 12.4881 44.4178 16.0696 39.9999 16.0696C35.5815 16.0696 32 12.4881 32 8.07019C32 3.65186 35.5815 0.0703125 39.9999 0.0703125C44.4178 0.0703125 47.9998 3.65186 47.9998 8.07019Z" fill="url(#paint2_linear_688_429)"/>
<path id="Vector_4" d="M13.9998 41.0695C13.9998 44.9348 10.8636 48.0696 6.99783 48.0696C3.13248 48.0696 0 44.9348 0 41.0695C0 37.205 3.13248 34.0698 6.99829 34.0698C10.8641 34.0698 13.9998 37.205 13.9998 41.0695Z" fill="url(#paint3_linear_688_429)"/>
</g>
<defs>
<linearGradient id="paint0_linear_688_429" x1="14.0586" y1="0.0722656" x2="14.0586" y2="28.1877" gradientUnits="userSpaceOnUse">
<stop stop-color="#02A676"/>
<stop offset="1" stop-color="#00C189"/>
</linearGradient>
<linearGradient id="paint1_linear_688_429" x1="33.9411" y1="19.9524" x2="33.9411" y2="48.0678" gradientUnits="userSpaceOnUse">
<stop stop-color="#02A676"/>
<stop offset="1" stop-color="#00C189"/>
</linearGradient>
<linearGradient id="paint2_linear_688_429" x1="39.9999" y1="0.0703125" x2="39.9999" y2="16.0696" gradientUnits="userSpaceOnUse">
<stop stop-color="#02A676"/>
<stop offset="1" stop-color="#00C189"/>
</linearGradient>
<linearGradient id="paint3_linear_688_429" x1="6.99989" y1="34.0698" x2="6.99989" y2="48.0696" gradientUnits="userSpaceOnUse">
<stop stop-color="#02A676"/>
<stop offset="1" stop-color="#00C189"/>
</linearGradient>
<clipPath id="clip0_688_429">
<rect width="48" height="48" fill="white"/>
</clipPath>
</defs>
</svg>
