<svg xmlns="http://www.w3.org/2000/svg" width="74" height="24" viewBox="0 0 74 24" fill="none">
  <path d="M6.60714 3.33333H9.25C11.0745 3.33333 12.5536 4.82572 12.5536 6.66667V17.3333C12.5536 18.1394 12.27 18.8786 11.798 19.455L13.5151 22.4251C14.9476 21.2022 15.8571 19.3749 15.8571 17.3333V6.66667C15.8571 2.98477 12.899 0 9.25 0H6.60714C2.95812 0 0 2.98477 0 6.66667V17.3333C0 21.0152 2.95812 24 6.60714 24H9.25C9.64325 24 10.0285 23.9653 10.4028 23.8989L8.53423 20.6667H6.60714C4.78263 20.6667 3.30357 19.1743 3.30357 17.3333V6.66667C3.30357 4.82572 4.78263 3.33333 6.60714 3.33333Z" fill="#212121"/>
  <path fill-rule="evenodd" clip-rule="evenodd" d="M19.8214 6.66667C19.8214 2.98477 22.7795 0 26.4286 0H29.0714C32.7205 0 35.6786 2.98477 35.6786 6.66667V17.3333C35.6786 21.0152 32.7205 24 29.0714 24H26.4286C22.7795 24 19.8214 21.0152 19.8214 17.3333V6.66667ZM26.4286 3.33333H29.0714C30.8959 3.33333 32.375 4.82572 32.375 6.66667V17.3333C32.375 19.1743 30.8959 20.6667 29.0714 20.6667H26.4286C24.6041 20.6667 23.125 19.1743 23.125 17.3333V6.66667C23.125 4.82572 24.6041 3.33333 26.4286 3.33333Z" fill="#212121"/>
  <path fill-rule="evenodd" clip-rule="evenodd" d="M39.6429 6.66667C39.6429 2.98477 42.601 0 46.25 0H48.8929C52.5419 0 55.5 2.98477 55.5 6.66667V17.3333C55.5 21.0152 52.5419 24 48.8929 24H46.25C42.601 24 39.6429 21.0152 39.6429 17.3333V6.66667ZM46.25 3.33333H48.8929C50.7174 3.33333 52.1964 4.82572 52.1964 6.66667V17.3333C52.1964 19.1743 50.7174 20.6667 48.8929 20.6667H46.25C44.4255 20.6667 42.9464 19.1743 42.9464 17.3333V6.66667C42.9464 4.82572 44.4255 3.33333 46.25 3.33333Z" fill="#212121"/>
  <path d="M74 0.666667L69.7054 8.85189L67.7232 5.07406L70.0357 0.666667H74Z" fill="#212121"/>
  <path d="M70.0357 23.3333L67.7232 18.9259L69.7054 15.1481L74 23.3333H70.0357Z" fill="#212121"/>
  <path d="M58.1426 0.666748H62.1069L68.0533 12.0001L62.1069 23.3334H58.1426L64.089 12.0001L58.1426 0.666748Z" fill="#008F65"/>
</svg>