<svg width="24" height="24" viewBox="0 0 24 24" fill="none" xmlns="http://www.w3.org/2000/svg">
<g id="Spinner">
<g clip-path="url(#clip0_554_24104)">
<path id="Ellipse 893" d="M24 12C24 18.6274 18.6274 24 12 24C5.37258 24 0 18.6274 0 12C0 5.37258 5.37258 0 12 0C18.6274 0 24 5.37258 24 12ZM1.8 12C1.8 17.6333 6.36669 22.2 12 22.2C17.6333 22.2 22.2 17.6333 22.2 12C22.2 6.36669 17.6333 1.8 12 1.8C6.36669 1.8 1.8 6.36669 1.8 12Z" fill="#F6F6F6"/>
<path id="Ellipse 892" d="M12 0C10.1063 -2.25824e-08 8.23944 0.448189 6.55211 1.30792C4.86479 2.16765 3.4049 3.41452 2.2918 4.94658C1.17869 6.47863 0.443984 8.25238 0.14774 10.1228C-0.148504 11.9932 0.00212872 13.9072 0.587322 15.7082C1.17252 17.5092 2.17565 19.1462 3.51472 20.4853C4.85379 21.8243 6.49076 22.8275 8.2918 23.4127C10.0928 23.9979 12.0068 24.1485 13.8772 23.8523C15.7476 23.556 17.5214 22.8213 19.0534 21.7082L17.9954 20.252C16.6932 21.1981 15.1855 21.8226 13.5956 22.0744C12.0058 22.3262 10.3789 22.1982 8.84803 21.7008C7.31714 21.2034 5.92572 20.3507 4.78751 19.2125C3.6493 18.0743 2.79664 16.6829 2.29922 15.152C1.80181 13.6211 1.67377 11.9942 1.92558 10.4044C2.17739 8.81452 2.80189 7.30684 3.74803 6.00459C4.69416 4.70234 5.93507 3.64251 7.3693 2.91173C8.80352 2.18096 10.3903 1.8 12 1.8V0Z" fill="#7FB7A6"/>
</g>
</g>
<defs>
<clipPath id="clip0_554_24104">
<rect width="24" height="24" rx="12" fill="white"/>
</clipPath>
</defs>
</svg>
